<?xml version="1.0" encoding="UTF-8"?>
<svg id="_圖層_1" xmlns="http://www.w3.org/2000/svg" version="1.1" xmlns:xlink="http://www.w3.org/1999/xlink" viewBox="0 0 841.9 595.3">
  <!-- Generator: Adobe Illustrator 29.2.1, SVG Export Plug-In . SVG Version: 2.1.0 Build 116)  -->
  <defs>
    <style>
      .st0 {
        opacity: 0;
      }

      .st0, .st1, .st2, .st3, .st4, .st5 {
        isolation: isolate;
      }

      .st1 {
        font-family: MicrosoftJhengHeiBold, 'Microsoft JhengHei';
        font-size: 8px;
      }

      .st2 {
        opacity: 0;
        stroke: #091021;
      }

      .st2, .st6 {
        fill: none;
      }

      .st2, .st5 {
        stroke-miterlimit: 10;
      }

      .st7 {
        fill-opacity: 0;
      }

      .st4 {
        opacity: .5;
      }

      .st5 {
        fill: #091021;
        opacity: 0;
        stroke: #bcbcbc;
        stroke-width: .5px;
      }

      .st8 {
        clip-path: url(#clippath);
      }
    </style>
    <clipPath id="clippath">
      <rect class="st6" y="0" width="841.9" height="595.3"/>
    </clipPath>
  </defs>
  <g class="st8">
    <rect class="st0" y="0" width="42.1" height="29.8"/>
    <rect class="st7" x="42.1" y="0" width="42.1" height="29.8"/>
    <rect class="st0" x="84.2" y="0" width="42.1" height="29.8"/>
    <rect class="st7" x="126.3" y="0" width="42.1" height="29.8"/>
    <rect class="st0" x="168.4" y="0" width="42.1" height="29.8"/>
    <rect class="st7" x="210.5" y="0" width="42.1" height="29.8"/>
    <rect class="st0" x="252.6" y="0" width="42.1" height="29.8"/>
    <rect class="st7" x="294.7" y="0" width="42.1" height="29.8"/>
    <rect class="st0" x="336.8" y="0" width="42.1" height="29.8"/>
    <rect class="st7" x="378.9" y="0" width="42.1" height="29.8"/>
    <rect class="st0" x="421" y="0" width="42.1" height="29.8"/>
    <rect class="st7" x="463.1" y="0" width="42.1" height="29.8"/>
    <rect class="st0" x="505.1" y="0" width="42.1" height="29.8"/>
    <rect class="st7" x="547.2" y="0" width="42.1" height="29.8"/>
    <rect class="st0" x="589.3" y="0" width="42.1" height="29.8"/>
    <rect class="st7" x="631.4" y="0" width="42.1" height="29.8"/>
    <rect class="st0" x="673.5" y="0" width="42.1" height="29.8"/>
    <rect class="st7" x="715.6" y="0" width="42.1" height="29.8"/>
    <rect class="st0" x="757.7" y="0" width="42.1" height="29.8"/>
    <rect class="st7" x="799.8" y="0" width="42.1" height="29.8"/>
    <rect class="st0" x="42.1" y="29.8" width="42.1" height="29.8"/>
    <rect class="st7" y="29.8" width="42.1" height="29.8"/>
    <rect class="st0" x="126.3" y="29.8" width="42.1" height="29.8"/>
    <rect class="st7" x="84.2" y="29.8" width="42.1" height="29.8"/>
    <rect class="st0" x="210.5" y="29.8" width="42.1" height="29.8"/>
    <rect class="st7" x="168.4" y="29.8" width="42.1" height="29.8"/>
    <rect class="st0" x="294.7" y="29.8" width="42.1" height="29.8"/>
    <rect class="st7" x="252.6" y="29.8" width="42.1" height="29.8"/>
    <rect class="st0" x="378.9" y="29.8" width="42.1" height="29.8"/>
    <rect class="st7" x="336.8" y="29.8" width="42.1" height="29.8"/>
    <rect class="st0" x="463.1" y="29.8" width="42.1" height="29.8"/>
    <rect class="st7" x="421" y="29.8" width="42.1" height="29.8"/>
    <rect class="st0" x="547.2" y="29.8" width="42.1" height="29.8"/>
    <rect class="st7" x="505.1" y="29.8" width="42.1" height="29.8"/>
    <rect class="st0" x="631.4" y="29.8" width="42.1" height="29.8"/>
    <rect class="st7" x="589.3" y="29.8" width="42.1" height="29.8"/>
    <rect class="st0" x="715.6" y="29.8" width="42.1" height="29.8"/>
    <rect class="st7" x="673.5" y="29.8" width="42.1" height="29.8"/>
    <rect class="st0" x="799.8" y="29.8" width="42.1" height="29.8"/>
    <rect class="st7" x="757.7" y="29.8" width="42.1" height="29.8"/>
    <rect class="st0" y="59.5" width="42.1" height="29.8"/>
    <rect class="st7" x="42.1" y="59.5" width="42.1" height="29.8"/>
    <rect class="st0" x="84.2" y="59.5" width="42.1" height="29.8"/>
    <rect class="st7" x="126.3" y="59.5" width="42.1" height="29.8"/>
    <rect class="st0" x="168.4" y="59.5" width="42.1" height="29.8"/>
    <rect class="st7" x="210.5" y="59.5" width="42.1" height="29.8"/>
    <rect class="st0" x="252.6" y="59.5" width="42.1" height="29.8"/>
    <rect class="st7" x="294.7" y="59.5" width="42.1" height="29.8"/>
    <rect class="st0" x="336.8" y="59.5" width="42.1" height="29.8"/>
    <rect class="st7" x="378.9" y="59.5" width="42.1" height="29.8"/>
    <rect class="st0" x="421" y="59.5" width="42.1" height="29.8"/>
    <rect class="st7" x="463.1" y="59.5" width="42.1" height="29.8"/>
    <rect class="st0" x="505.1" y="59.5" width="42.1" height="29.8"/>
    <rect class="st7" x="547.2" y="59.5" width="42.1" height="29.8"/>
    <rect class="st0" x="589.3" y="59.5" width="42.1" height="29.8"/>
    <rect class="st7" x="631.4" y="59.5" width="42.1" height="29.8"/>
    <rect class="st0" x="673.5" y="59.5" width="42.1" height="29.8"/>
    <rect class="st7" x="715.6" y="59.5" width="42.1" height="29.8"/>
    <rect class="st0" x="757.7" y="59.5" width="42.1" height="29.8"/>
    <rect class="st7" x="799.8" y="59.5" width="42.1" height="29.8"/>
    <rect class="st0" x="42.1" y="89.3" width="42.1" height="29.8"/>
    <rect class="st7" y="89.3" width="42.1" height="29.8"/>
    <rect class="st0" x="126.3" y="89.3" width="42.1" height="29.8"/>
    <rect class="st7" x="84.2" y="89.3" width="42.1" height="29.8"/>
    <rect class="st0" x="210.5" y="89.3" width="42.1" height="29.8"/>
    <rect class="st7" x="168.4" y="89.3" width="42.1" height="29.8"/>
    <rect class="st0" x="294.7" y="89.3" width="42.1" height="29.8"/>
    <rect class="st7" x="252.6" y="89.3" width="42.1" height="29.8"/>
    <rect class="st0" x="378.9" y="89.3" width="42.1" height="29.8"/>
    <rect class="st7" x="336.8" y="89.3" width="42.1" height="29.8"/>
    <rect class="st0" x="463.1" y="89.3" width="42.1" height="29.8"/>
    <rect class="st7" x="421" y="89.3" width="42.1" height="29.8"/>
    <rect class="st0" x="547.2" y="89.3" width="42.1" height="29.8"/>
    <rect class="st7" x="505.1" y="89.3" width="42.1" height="29.8"/>
    <rect class="st0" x="631.4" y="89.3" width="42.1" height="29.8"/>
    <rect class="st7" x="589.3" y="89.3" width="42.1" height="29.8"/>
    <rect class="st0" x="715.6" y="89.3" width="42.1" height="29.8"/>
    <rect class="st7" x="673.5" y="89.3" width="42.1" height="29.8"/>
    <rect class="st0" x="799.8" y="89.3" width="42.1" height="29.8"/>
    <rect class="st7" x="757.7" y="89.3" width="42.1" height="29.8"/>
    <rect class="st0" y="119.1" width="42.1" height="29.8"/>
    <rect class="st7" x="42.1" y="119.1" width="42.1" height="29.8"/>
    <rect class="st0" x="84.2" y="119.1" width="42.1" height="29.8"/>
    <rect class="st7" x="126.3" y="119.1" width="42.1" height="29.8"/>
    <rect class="st0" x="168.4" y="119.1" width="42.1" height="29.8"/>
    <rect class="st7" x="210.5" y="119.1" width="42.1" height="29.8"/>
    <rect class="st0" x="252.6" y="119.1" width="42.1" height="29.8"/>
    <rect class="st7" x="294.7" y="119.1" width="42.1" height="29.8"/>
    <rect class="st0" x="336.8" y="119.1" width="42.1" height="29.8"/>
    <rect class="st7" x="378.9" y="119.1" width="42.1" height="29.8"/>
    <rect class="st0" x="421" y="119.1" width="42.1" height="29.8"/>
    <rect class="st7" x="463.1" y="119.1" width="42.1" height="29.8"/>
    <rect class="st0" x="505.1" y="119.1" width="42.1" height="29.8"/>
    <rect class="st7" x="547.2" y="119.1" width="42.1" height="29.8"/>
    <rect class="st0" x="589.3" y="119.1" width="42.1" height="29.8"/>
    <rect class="st7" x="631.4" y="119.1" width="42.1" height="29.8"/>
    <rect class="st0" x="673.5" y="119.1" width="42.1" height="29.8"/>
    <rect class="st7" x="715.6" y="119.1" width="42.1" height="29.8"/>
    <rect class="st0" x="757.7" y="119.1" width="42.1" height="29.8"/>
    <rect class="st7" x="799.8" y="119.1" width="42.1" height="29.8"/>
    <rect class="st0" x="42.1" y="148.8" width="42.1" height="29.8"/>
    <rect class="st7" y="148.8" width="42.1" height="29.8"/>
    <rect class="st0" x="126.3" y="148.8" width="42.1" height="29.8"/>
    <rect class="st7" x="84.2" y="148.8" width="42.1" height="29.8"/>
    <rect class="st0" x="210.5" y="148.8" width="42.1" height="29.8"/>
    <rect class="st7" x="168.4" y="148.8" width="42.1" height="29.8"/>
    <rect class="st0" x="294.7" y="148.8" width="42.1" height="29.8"/>
    <rect class="st7" x="252.6" y="148.8" width="42.1" height="29.8"/>
    <rect class="st0" x="378.9" y="148.8" width="42.1" height="29.8"/>
    <rect class="st7" x="336.8" y="148.8" width="42.1" height="29.8"/>
    <rect class="st0" x="463.1" y="148.8" width="42.1" height="29.8"/>
    <rect class="st7" x="421" y="148.8" width="42.1" height="29.8"/>
    <rect class="st0" x="547.2" y="148.8" width="42.1" height="29.8"/>
    <rect class="st7" x="505.1" y="148.8" width="42.1" height="29.8"/>
    <rect class="st0" x="631.4" y="148.8" width="42.1" height="29.8"/>
    <rect class="st7" x="589.3" y="148.8" width="42.1" height="29.8"/>
    <rect class="st0" x="715.6" y="148.8" width="42.1" height="29.8"/>
    <rect class="st7" x="673.5" y="148.8" width="42.1" height="29.8"/>
    <rect class="st0" x="799.8" y="148.8" width="42.1" height="29.8"/>
    <rect class="st7" x="757.7" y="148.8" width="42.1" height="29.8"/>
    <rect class="st0" y="178.6" width="42.1" height="29.8"/>
    <rect class="st7" x="42.1" y="178.6" width="42.1" height="29.8"/>
    <rect class="st0" x="84.2" y="178.6" width="42.1" height="29.8"/>
    <rect class="st7" x="126.3" y="178.6" width="42.1" height="29.8"/>
    <rect class="st0" x="168.4" y="178.6" width="42.1" height="29.8"/>
    <rect class="st7" x="210.5" y="178.6" width="42.1" height="29.8"/>
    <rect class="st0" x="252.6" y="178.6" width="42.1" height="29.8"/>
    <rect class="st7" x="294.7" y="178.6" width="42.1" height="29.8"/>
    <rect class="st0" x="336.8" y="178.6" width="42.1" height="29.8"/>
    <rect class="st7" x="378.9" y="178.6" width="42.1" height="29.8"/>
    <rect class="st0" x="421" y="178.6" width="42.1" height="29.8"/>
    <rect class="st7" x="463.1" y="178.6" width="42.1" height="29.8"/>
    <rect class="st0" x="505.1" y="178.6" width="42.1" height="29.8"/>
    <rect class="st7" x="547.2" y="178.6" width="42.1" height="29.8"/>
    <rect class="st0" x="589.3" y="178.6" width="42.1" height="29.8"/>
    <rect class="st7" x="631.4" y="178.6" width="42.1" height="29.8"/>
    <rect class="st0" x="673.5" y="178.6" width="42.1" height="29.8"/>
    <rect class="st7" x="715.6" y="178.6" width="42.1" height="29.8"/>
    <rect class="st0" x="757.7" y="178.6" width="42.1" height="29.8"/>
    <rect class="st7" x="799.8" y="178.6" width="42.1" height="29.8"/>
    <rect class="st0" x="42.1" y="208.4" width="42.1" height="29.8"/>
    <rect class="st7" y="208.4" width="42.1" height="29.8"/>
    <rect class="st0" x="126.3" y="208.4" width="42.1" height="29.8"/>
    <rect class="st7" x="84.2" y="208.4" width="42.1" height="29.8"/>
    <rect class="st0" x="210.5" y="208.4" width="42.1" height="29.8"/>
    <rect class="st7" x="168.4" y="208.4" width="42.1" height="29.8"/>
    <rect class="st0" x="294.7" y="208.4" width="42.1" height="29.8"/>
    <rect class="st7" x="252.6" y="208.4" width="42.1" height="29.8"/>
    <rect class="st0" x="378.9" y="208.4" width="42.1" height="29.8"/>
    <rect class="st7" x="336.8" y="208.4" width="42.1" height="29.8"/>
    <rect class="st0" x="463.1" y="208.4" width="42.1" height="29.8"/>
    <rect class="st7" x="421" y="208.4" width="42.1" height="29.8"/>
    <rect class="st0" x="547.2" y="208.4" width="42.1" height="29.8"/>
    <rect class="st7" x="505.1" y="208.4" width="42.1" height="29.8"/>
    <rect class="st0" x="631.4" y="208.4" width="42.1" height="29.8"/>
    <rect class="st7" x="589.3" y="208.4" width="42.1" height="29.8"/>
    <rect class="st0" x="715.6" y="208.4" width="42.1" height="29.8"/>
    <rect class="st7" x="673.5" y="208.4" width="42.1" height="29.8"/>
    <rect class="st0" x="799.8" y="208.4" width="42.1" height="29.8"/>
    <rect class="st7" x="757.7" y="208.4" width="42.1" height="29.8"/>
    <rect class="st0" y="238.1" width="42.1" height="29.8"/>
    <rect class="st7" x="42.1" y="238.1" width="42.1" height="29.8"/>
    <rect class="st0" x="84.2" y="238.1" width="42.1" height="29.8"/>
    <rect class="st7" x="126.3" y="238.1" width="42.1" height="29.8"/>
    <rect class="st0" x="168.4" y="238.1" width="42.1" height="29.8"/>
    <rect class="st7" x="210.5" y="238.1" width="42.1" height="29.8"/>
    <rect class="st0" x="252.6" y="238.1" width="42.1" height="29.8"/>
    <rect class="st7" x="294.7" y="238.1" width="42.1" height="29.8"/>
    <rect class="st0" x="336.8" y="238.1" width="42.1" height="29.8"/>
    <rect class="st7" x="378.9" y="238.1" width="42.1" height="29.8"/>
    <rect class="st0" x="421" y="238.1" width="42.1" height="29.8"/>
    <rect class="st7" x="463.1" y="238.1" width="42.1" height="29.8"/>
    <rect class="st0" x="505.1" y="238.1" width="42.1" height="29.8"/>
    <rect class="st7" x="547.2" y="238.1" width="42.1" height="29.8"/>
    <rect class="st0" x="589.3" y="238.1" width="42.1" height="29.8"/>
    <rect class="st7" x="631.4" y="238.1" width="42.1" height="29.8"/>
    <rect class="st0" x="673.5" y="238.1" width="42.1" height="29.8"/>
    <rect class="st7" x="715.6" y="238.1" width="42.1" height="29.8"/>
    <rect class="st0" x="757.7" y="238.1" width="42.1" height="29.8"/>
    <rect class="st7" x="799.8" y="238.1" width="42.1" height="29.8"/>
    <rect class="st0" x="42.1" y="267.9" width="42.1" height="29.8"/>
    <rect class="st7" y="267.9" width="42.1" height="29.8"/>
    <rect class="st0" x="126.3" y="267.9" width="42.1" height="29.8"/>
    <rect class="st7" x="84.2" y="267.9" width="42.1" height="29.8"/>
    <rect class="st0" x="210.5" y="267.9" width="42.1" height="29.8"/>
    <rect class="st7" x="168.4" y="267.9" width="42.1" height="29.8"/>
    <rect class="st0" x="294.7" y="267.9" width="42.1" height="29.8"/>
    <rect class="st7" x="252.6" y="267.9" width="42.1" height="29.8"/>
    <rect class="st0" x="378.9" y="267.9" width="42.1" height="29.8"/>
    <rect class="st7" x="336.8" y="267.9" width="42.1" height="29.8"/>
    <rect class="st0" x="463.1" y="267.9" width="42.1" height="29.8"/>
    <rect class="st7" x="421" y="267.9" width="42.1" height="29.8"/>
    <rect class="st0" x="547.2" y="267.9" width="42.1" height="29.8"/>
    <rect class="st7" x="505.1" y="267.9" width="42.1" height="29.8"/>
    <rect class="st0" x="631.4" y="267.9" width="42.1" height="29.8"/>
    <rect class="st7" x="589.3" y="267.9" width="42.1" height="29.8"/>
    <rect class="st0" x="715.6" y="267.9" width="42.1" height="29.8"/>
    <rect class="st7" x="673.5" y="267.9" width="42.1" height="29.8"/>
    <rect class="st0" x="799.8" y="267.9" width="42.1" height="29.8"/>
    <rect class="st7" x="757.7" y="267.9" width="42.1" height="29.8"/>
    <rect class="st0" y="297.7" width="42.1" height="29.8"/>
    <rect class="st7" x="42.1" y="297.7" width="42.1" height="29.8"/>
    <rect class="st0" x="84.2" y="297.7" width="42.1" height="29.8"/>
    <rect class="st7" x="126.3" y="297.7" width="42.1" height="29.8"/>
    <rect class="st0" x="168.4" y="297.7" width="42.1" height="29.8"/>
    <rect class="st7" x="210.5" y="297.7" width="42.1" height="29.8"/>
    <rect class="st0" x="252.6" y="297.7" width="42.1" height="29.8"/>
    <rect class="st7" x="294.7" y="297.7" width="42.1" height="29.8"/>
    <rect class="st0" x="336.8" y="297.7" width="42.1" height="29.8"/>
    <rect class="st7" x="378.9" y="297.7" width="42.1" height="29.8"/>
    <rect class="st0" x="421" y="297.7" width="42.1" height="29.8"/>
    <rect class="st7" x="463.1" y="297.7" width="42.1" height="29.8"/>
    <rect class="st0" x="505.1" y="297.7" width="42.1" height="29.8"/>
    <rect class="st7" x="547.2" y="297.7" width="42.1" height="29.8"/>
    <rect class="st0" x="589.3" y="297.7" width="42.1" height="29.8"/>
    <rect class="st7" x="631.4" y="297.7" width="42.1" height="29.8"/>
    <rect class="st0" x="673.5" y="297.7" width="42.1" height="29.8"/>
    <rect class="st7" x="715.6" y="297.7" width="42.1" height="29.8"/>
    <rect class="st0" x="757.7" y="297.7" width="42.1" height="29.8"/>
    <rect class="st7" x="799.8" y="297.7" width="42.1" height="29.8"/>
    <rect class="st0" x="42.1" y="327.4" width="42.1" height="29.8"/>
    <rect class="st7" y="327.4" width="42.1" height="29.8"/>
    <rect class="st0" x="126.3" y="327.4" width="42.1" height="29.8"/>
    <rect class="st7" x="84.2" y="327.4" width="42.1" height="29.8"/>
    <rect class="st0" x="210.5" y="327.4" width="42.1" height="29.8"/>
    <rect class="st7" x="168.4" y="327.4" width="42.1" height="29.8"/>
    <rect class="st0" x="294.7" y="327.4" width="42.1" height="29.8"/>
    <rect class="st7" x="252.6" y="327.4" width="42.1" height="29.8"/>
    <rect class="st0" x="378.9" y="327.4" width="42.1" height="29.8"/>
    <rect class="st7" x="336.8" y="327.4" width="42.1" height="29.8"/>
    <rect class="st0" x="463.1" y="327.4" width="42.1" height="29.8"/>
    <rect class="st7" x="421" y="327.4" width="42.1" height="29.8"/>
    <rect class="st0" x="547.2" y="327.4" width="42.1" height="29.8"/>
    <rect class="st7" x="505.1" y="327.4" width="42.1" height="29.8"/>
    <rect class="st0" x="631.4" y="327.4" width="42.1" height="29.8"/>
    <rect class="st7" x="589.3" y="327.4" width="42.1" height="29.8"/>
    <rect class="st0" x="715.6" y="327.4" width="42.1" height="29.8"/>
    <rect class="st7" x="673.5" y="327.4" width="42.1" height="29.8"/>
    <rect class="st0" x="799.8" y="327.4" width="42.1" height="29.8"/>
    <rect class="st7" x="757.7" y="327.4" width="42.1" height="29.8"/>
    <rect class="st0" y="357.2" width="42.1" height="29.8"/>
    <rect class="st7" x="42.1" y="357.2" width="42.1" height="29.8"/>
    <rect class="st0" x="84.2" y="357.2" width="42.1" height="29.8"/>
    <rect class="st7" x="126.3" y="357.2" width="42.1" height="29.8"/>
    <rect class="st0" x="168.4" y="357.2" width="42.1" height="29.8"/>
    <rect class="st7" x="210.5" y="357.2" width="42.1" height="29.8"/>
    <rect class="st0" x="252.6" y="357.2" width="42.1" height="29.8"/>
    <rect class="st7" x="294.7" y="357.2" width="42.1" height="29.8"/>
    <rect class="st0" x="336.8" y="357.2" width="42.1" height="29.8"/>
    <rect class="st7" x="378.9" y="357.2" width="42.1" height="29.8"/>
    <rect class="st0" x="421" y="357.2" width="42.1" height="29.8"/>
    <rect class="st7" x="463.1" y="357.2" width="42.1" height="29.8"/>
    <rect class="st0" x="505.1" y="357.2" width="42.1" height="29.8"/>
    <rect class="st7" x="547.2" y="357.2" width="42.1" height="29.8"/>
    <rect class="st0" x="589.3" y="357.2" width="42.1" height="29.8"/>
    <rect class="st7" x="631.4" y="357.2" width="42.1" height="29.8"/>
    <rect class="st0" x="673.5" y="357.2" width="42.1" height="29.8"/>
    <rect class="st7" x="715.6" y="357.2" width="42.1" height="29.8"/>
    <rect class="st0" x="757.7" y="357.2" width="42.1" height="29.8"/>
    <rect class="st7" x="799.8" y="357.2" width="42.1" height="29.8"/>
    <rect class="st0" x="42.1" y="387" width="42.1" height="29.8"/>
    <rect class="st7" y="387" width="42.1" height="29.8"/>
    <rect class="st0" x="126.3" y="387" width="42.1" height="29.8"/>
    <rect class="st7" x="84.2" y="387" width="42.1" height="29.8"/>
    <rect class="st0" x="210.5" y="387" width="42.1" height="29.8"/>
    <rect class="st7" x="168.4" y="387" width="42.1" height="29.8"/>
    <rect class="st0" x="294.7" y="387" width="42.1" height="29.8"/>
    <rect class="st7" x="252.6" y="387" width="42.1" height="29.8"/>
    <rect class="st0" x="378.9" y="387" width="42.1" height="29.8"/>
    <rect class="st7" x="336.8" y="387" width="42.1" height="29.8"/>
    <rect class="st0" x="463.1" y="387" width="42.1" height="29.8"/>
    <rect class="st7" x="421" y="387" width="42.1" height="29.8"/>
    <rect class="st0" x="547.2" y="387" width="42.1" height="29.8"/>
    <rect class="st7" x="505.1" y="387" width="42.1" height="29.8"/>
    <rect class="st0" x="631.4" y="387" width="42.1" height="29.8"/>
    <rect class="st7" x="589.3" y="387" width="42.1" height="29.8"/>
    <rect class="st0" x="715.6" y="387" width="42.1" height="29.8"/>
    <rect class="st7" x="673.5" y="387" width="42.1" height="29.8"/>
    <rect class="st0" x="799.8" y="387" width="42.1" height="29.8"/>
    <rect class="st7" x="757.7" y="387" width="42.1" height="29.8"/>
    <rect class="st0" y="416.7" width="42.1" height="29.8"/>
    <rect class="st7" x="42.1" y="416.7" width="42.1" height="29.8"/>
    <rect class="st0" x="84.2" y="416.7" width="42.1" height="29.8"/>
    <rect class="st7" x="126.3" y="416.7" width="42.1" height="29.8"/>
    <rect class="st0" x="168.4" y="416.7" width="42.1" height="29.8"/>
    <rect class="st7" x="210.5" y="416.7" width="42.1" height="29.8"/>
    <rect class="st0" x="252.6" y="416.7" width="42.1" height="29.8"/>
    <rect class="st7" x="294.7" y="416.7" width="42.1" height="29.8"/>
    <rect class="st0" x="336.8" y="416.7" width="42.1" height="29.8"/>
    <rect class="st7" x="378.9" y="416.7" width="42.1" height="29.8"/>
    <rect class="st0" x="421" y="416.7" width="42.1" height="29.8"/>
    <rect class="st7" x="463.1" y="416.7" width="42.1" height="29.8"/>
    <rect class="st0" x="505.1" y="416.7" width="42.1" height="29.8"/>
    <rect class="st7" x="547.2" y="416.7" width="42.1" height="29.8"/>
    <rect class="st0" x="589.3" y="416.7" width="42.1" height="29.8"/>
    <rect class="st7" x="631.4" y="416.7" width="42.1" height="29.8"/>
    <rect class="st0" x="673.5" y="416.7" width="42.1" height="29.8"/>
    <rect class="st7" x="715.6" y="416.7" width="42.1" height="29.8"/>
    <rect class="st0" x="757.7" y="416.7" width="42.1" height="29.8"/>
    <rect class="st7" x="799.8" y="416.7" width="42.1" height="29.8"/>
    <rect class="st0" x="42.1" y="446.5" width="42.1" height="29.8"/>
    <rect class="st7" y="446.5" width="42.1" height="29.8"/>
    <rect class="st0" x="126.3" y="446.5" width="42.1" height="29.8"/>
    <rect class="st7" x="84.2" y="446.5" width="42.1" height="29.8"/>
    <rect class="st0" x="210.5" y="446.5" width="42.1" height="29.8"/>
    <rect class="st7" x="168.4" y="446.5" width="42.1" height="29.8"/>
    <rect class="st0" x="294.7" y="446.5" width="42.1" height="29.8"/>
    <rect class="st7" x="252.6" y="446.5" width="42.1" height="29.8"/>
    <rect class="st0" x="378.9" y="446.5" width="42.1" height="29.8"/>
    <rect class="st7" x="336.8" y="446.5" width="42.1" height="29.8"/>
    <rect class="st0" x="463.1" y="446.5" width="42.1" height="29.8"/>
    <rect class="st7" x="421" y="446.5" width="42.1" height="29.8"/>
    <rect class="st0" x="547.2" y="446.5" width="42.1" height="29.8"/>
    <rect class="st7" x="505.1" y="446.5" width="42.1" height="29.8"/>
    <rect class="st0" x="631.4" y="446.5" width="42.1" height="29.8"/>
    <rect class="st7" x="589.3" y="446.5" width="42.1" height="29.8"/>
    <rect class="st0" x="715.6" y="446.5" width="42.1" height="29.8"/>
    <rect class="st7" x="673.5" y="446.5" width="42.1" height="29.8"/>
    <rect class="st0" x="799.8" y="446.5" width="42.1" height="29.8"/>
    <rect class="st7" x="757.7" y="446.5" width="42.1" height="29.8"/>
    <rect class="st0" y="476.2" width="42.1" height="29.8"/>
    <rect class="st7" x="42.1" y="476.2" width="42.1" height="29.8"/>
    <rect class="st0" x="84.2" y="476.2" width="42.1" height="29.8"/>
    <rect class="st7" x="126.3" y="476.2" width="42.1" height="29.8"/>
    <rect class="st0" x="168.4" y="476.2" width="42.1" height="29.8"/>
    <rect class="st7" x="210.5" y="476.2" width="42.1" height="29.8"/>
    <rect class="st0" x="252.6" y="476.2" width="42.1" height="29.8"/>
    <rect class="st7" x="294.7" y="476.2" width="42.1" height="29.8"/>
    <rect class="st0" x="336.8" y="476.2" width="42.1" height="29.8"/>
    <rect class="st7" x="378.9" y="476.2" width="42.1" height="29.8"/>
    <rect class="st0" x="421" y="476.2" width="42.1" height="29.8"/>
    <rect class="st7" x="463.1" y="476.2" width="42.1" height="29.8"/>
    <rect class="st0" x="505.1" y="476.2" width="42.1" height="29.8"/>
    <rect class="st7" x="547.2" y="476.2" width="42.1" height="29.8"/>
    <rect class="st0" x="589.3" y="476.2" width="42.1" height="29.8"/>
    <rect class="st7" x="631.4" y="476.2" width="42.1" height="29.8"/>
    <rect class="st0" x="673.5" y="476.2" width="42.1" height="29.8"/>
    <rect class="st7" x="715.6" y="476.2" width="42.1" height="29.8"/>
    <rect class="st0" x="757.7" y="476.2" width="42.1" height="29.8"/>
    <rect class="st7" x="799.8" y="476.2" width="42.1" height="29.8"/>
    <rect class="st0" x="42.1" y="506" width="42.1" height="29.8"/>
    <rect class="st7" y="506" width="42.1" height="29.8"/>
    <rect class="st0" x="126.3" y="506" width="42.1" height="29.8"/>
    <rect class="st7" x="84.2" y="506" width="42.1" height="29.8"/>
    <rect class="st0" x="210.5" y="506" width="42.1" height="29.8"/>
    <rect class="st7" x="168.4" y="506" width="42.1" height="29.8"/>
    <rect class="st0" x="294.7" y="506" width="42.1" height="29.8"/>
    <rect class="st7" x="252.6" y="506" width="42.1" height="29.8"/>
    <rect class="st0" x="378.9" y="506" width="42.1" height="29.8"/>
    <rect class="st7" x="336.8" y="506" width="42.1" height="29.8"/>
    <rect class="st0" x="463.1" y="506" width="42.1" height="29.8"/>
    <rect class="st7" x="421" y="506" width="42.1" height="29.8"/>
    <rect class="st0" x="547.2" y="506" width="42.1" height="29.8"/>
    <rect class="st7" x="505.1" y="506" width="42.1" height="29.8"/>
    <rect class="st0" x="631.4" y="506" width="42.1" height="29.8"/>
    <rect class="st7" x="589.3" y="506" width="42.1" height="29.8"/>
    <rect class="st0" x="715.6" y="506" width="42.1" height="29.8"/>
    <rect class="st7" x="673.5" y="506" width="42.1" height="29.8"/>
    <rect class="st0" x="799.8" y="506" width="42.1" height="29.8"/>
    <rect class="st7" x="757.7" y="506" width="42.1" height="29.8"/>
    <rect class="st0" y="535.8" width="42.1" height="29.8"/>
    <rect class="st7" x="42.1" y="535.8" width="42.1" height="29.8"/>
    <rect class="st0" x="84.2" y="535.8" width="42.1" height="29.8"/>
    <rect class="st7" x="126.3" y="535.8" width="42.1" height="29.8"/>
    <rect class="st0" x="168.4" y="535.8" width="42.1" height="29.8"/>
    <rect class="st7" x="210.5" y="535.8" width="42.1" height="29.8"/>
    <rect class="st0" x="252.6" y="535.8" width="42.1" height="29.8"/>
    <rect class="st7" x="294.7" y="535.8" width="42.1" height="29.8"/>
    <rect class="st0" x="336.8" y="535.8" width="42.1" height="29.8"/>
    <rect class="st7" x="378.9" y="535.8" width="42.1" height="29.8"/>
    <rect class="st0" x="421" y="535.8" width="42.1" height="29.8"/>
    <rect class="st7" x="463.1" y="535.8" width="42.1" height="29.8"/>
    <rect class="st0" x="505.1" y="535.8" width="42.1" height="29.8"/>
    <rect class="st7" x="547.2" y="535.8" width="42.1" height="29.8"/>
    <rect class="st0" x="589.3" y="535.8" width="42.1" height="29.8"/>
    <rect class="st7" x="631.4" y="535.8" width="42.1" height="29.8"/>
    <rect class="st0" x="673.5" y="535.8" width="42.1" height="29.8"/>
    <rect class="st7" x="715.6" y="535.8" width="42.1" height="29.8"/>
    <rect class="st0" x="757.7" y="535.8" width="42.1" height="29.8"/>
    <rect class="st7" x="799.8" y="535.8" width="42.1" height="29.8"/>
    <rect class="st0" x="42.1" y="565.5" width="42.1" height="29.8"/>
    <rect class="st7" y="565.5" width="42.1" height="29.8"/>
    <rect class="st0" x="126.3" y="565.5" width="42.1" height="29.8"/>
    <rect class="st7" x="84.2" y="565.5" width="42.1" height="29.8"/>
    <rect class="st0" x="210.5" y="565.5" width="42.1" height="29.8"/>
    <rect class="st7" x="168.4" y="565.5" width="42.1" height="29.8"/>
    <rect class="st0" x="294.7" y="565.5" width="42.1" height="29.8"/>
    <rect class="st7" x="252.6" y="565.5" width="42.1" height="29.8"/>
    <rect class="st0" x="378.9" y="565.5" width="42.1" height="29.8"/>
    <rect class="st7" x="336.8" y="565.5" width="42.1" height="29.8"/>
    <rect class="st0" x="463.1" y="565.5" width="42.1" height="29.8"/>
    <rect class="st7" x="421" y="565.5" width="42.1" height="29.8"/>
    <rect class="st0" x="547.2" y="565.5" width="42.1" height="29.8"/>
    <rect class="st7" x="505.1" y="565.5" width="42.1" height="29.8"/>
    <rect class="st0" x="631.4" y="565.5" width="42.1" height="29.8"/>
    <rect class="st7" x="589.3" y="565.5" width="42.1" height="29.8"/>
    <rect class="st0" x="715.6" y="565.5" width="42.1" height="29.8"/>
    <rect class="st7" x="673.5" y="565.5" width="42.1" height="29.8"/>
    <rect class="st0" x="799.8" y="565.5" width="42.1" height="29.8"/>
    <rect class="st7" x="757.7" y="565.5" width="42.1" height="29.8"/>
    <g class="st3">
      <text class="st1" transform="translate(79.1 11.4)"><tspan x="0" y="0">10</tspan></text>
    </g>
    <g class="st3">
      <text class="st1" transform="translate(163.6 11.4)"><tspan x="0" y="0">20</tspan></text>
    </g>
    <g class="st3">
      <text class="st1" transform="translate(248.5 11.4)"><tspan x="0" y="0">30</tspan></text>
    </g>
    <g class="st3">
      <text class="st1" transform="translate(333 11.4)"><tspan x="0" y="0">40</tspan></text>
    </g>
    <g class="st3">
      <text class="st1" transform="translate(416.3 11.4)"><tspan x="0" y="0">50</tspan></text>
    </g>
    <g class="st3">
      <text class="st1" transform="translate(500.8 11.4)"><tspan x="0" y="0">60</tspan></text>
    </g>
    <g class="st3">
      <text class="st1" transform="translate(585.7 11.4)"><tspan x="0" y="0">70</tspan></text>
    </g>
    <g class="st3">
      <text class="st1" transform="translate(670.1 11.4)"><tspan x="0" y="0">80</tspan></text>
    </g>
    <g class="st3">
      <text class="st1" transform="translate(753.6 11.4)"><tspan x="0" y="0">90</tspan></text>
    </g>
    <g class="st4">
      <text class="st1" transform="translate(79.1 162.7)"><tspan x="0" y="0">10</tspan></text>
    </g>
    <g class="st4">
      <text class="st1" transform="translate(163.6 162.7)"><tspan x="0" y="0">20</tspan></text>
    </g>
    <g class="st4">
      <text class="st1" transform="translate(248.5 162.7)"><tspan x="0" y="0">30</tspan></text>
    </g>
    <g class="st4">
      <text class="st1" transform="translate(333 162.7)"><tspan x="0" y="0">40</tspan></text>
    </g>
    <g class="st4">
      <text class="st1" transform="translate(416.3 162.7)"><tspan x="0" y="0">50</tspan></text>
    </g>
    <g class="st4">
      <text class="st1" transform="translate(500.8 162.7)"><tspan x="0" y="0">60</tspan></text>
    </g>
    <g class="st4">
      <text class="st1" transform="translate(585.7 162.7)"><tspan x="0" y="0">70</tspan></text>
    </g>
    <g class="st4">
      <text class="st1" transform="translate(670.1 162.7)"><tspan x="0" y="0">80</tspan></text>
    </g>
    <g class="st4">
      <text class="st1" transform="translate(753.6 162.7)"><tspan x="0" y="0">90</tspan></text>
    </g>
    <g class="st4">
      <text class="st1" transform="translate(79.1 314)"><tspan x="0" y="0">10</tspan></text>
    </g>
    <g class="st4">
      <text class="st1" transform="translate(163.6 314)"><tspan x="0" y="0">20</tspan></text>
    </g>
    <g class="st4">
      <text class="st1" transform="translate(248.5 314)"><tspan x="0" y="0">30</tspan></text>
    </g>
    <g class="st4">
      <text class="st1" transform="translate(333 314)"><tspan x="0" y="0">40</tspan></text>
    </g>
    <g class="st4">
      <text class="st1" transform="translate(416.3 314)"><tspan x="0" y="0">50</tspan></text>
    </g>
    <g class="st4">
      <text class="st1" transform="translate(500.8 314)"><tspan x="0" y="0">60</tspan></text>
    </g>
    <g class="st4">
      <text class="st1" transform="translate(585.7 314)"><tspan x="0" y="0">70</tspan></text>
    </g>
    <g class="st4">
      <text class="st1" transform="translate(670.1 314)"><tspan x="0" y="0">80</tspan></text>
    </g>
    <g class="st4">
      <text class="st1" transform="translate(753.6 314)"><tspan x="0" y="0">90</tspan></text>
    </g>
    <g class="st4">
      <text class="st1" transform="translate(79.1 465.3)"><tspan x="0" y="0">10</tspan></text>
    </g>
    <g class="st4">
      <text class="st1" transform="translate(163.6 465.3)"><tspan x="0" y="0">20</tspan></text>
    </g>
    <g class="st4">
      <text class="st1" transform="translate(248.5 465.3)"><tspan x="0" y="0">30</tspan></text>
    </g>
    <g class="st4">
      <text class="st1" transform="translate(333 465.3)"><tspan x="0" y="0">40</tspan></text>
    </g>
    <g class="st4">
      <text class="st1" transform="translate(416.3 465.3)"><tspan x="0" y="0">50</tspan></text>
    </g>
    <g class="st4">
      <text class="st1" transform="translate(500.8 465.3)"><tspan x="0" y="0">60</tspan></text>
    </g>
    <g class="st4">
      <text class="st1" transform="translate(585.7 465.3)"><tspan x="0" y="0">70</tspan></text>
    </g>
    <g class="st4">
      <text class="st1" transform="translate(670.1 465.3)"><tspan x="0" y="0">80</tspan></text>
    </g>
    <g class="st4">
      <text class="st1" transform="translate(753.6 465.3)"><tspan x="0" y="0">90</tspan></text>
    </g>
    <g class="st3">
      <text class="st1" transform="translate(79.1 588.6)"><tspan x="0" y="0">10</tspan></text>
    </g>
    <g class="st3">
      <text class="st1" transform="translate(163.6 588.6)"><tspan x="0" y="0">20</tspan></text>
    </g>
    <g class="st3">
      <text class="st1" transform="translate(248.5 588.6)"><tspan x="0" y="0">30</tspan></text>
    </g>
    <g class="st3">
      <text class="st1" transform="translate(333 588.6)"><tspan x="0" y="0">40</tspan></text>
    </g>
    <g class="st3">
      <text class="st1" transform="translate(416.3 588.6)"><tspan x="0" y="0">50</tspan></text>
    </g>
    <g class="st3">
      <text class="st1" transform="translate(500.8 588.6)"><tspan x="0" y="0">60</tspan></text>
    </g>
    <g class="st3">
      <text class="st1" transform="translate(585.7 588.6)"><tspan x="0" y="0">70</tspan></text>
    </g>
    <g class="st3">
      <text class="st1" transform="translate(670.1 588.6)"><tspan x="0" y="0">80</tspan></text>
    </g>
    <g class="st3">
      <text class="st1" transform="translate(753.6 588.6)"><tspan x="0" y="0">90</tspan></text>
    </g>
    <g class="st3">
      <text class="st1" transform="translate(9.2 64.7)"><tspan x="0" y="0">10</tspan></text>
    </g>
    <g class="st3">
      <text class="st1" transform="translate(9.2 123.9)"><tspan x="0" y="0">20</tspan></text>
    </g>
    <g class="st3">
      <text class="st1" transform="translate(9.2 183.2)"><tspan x="0" y="0">30</tspan></text>
    </g>
    <g class="st3">
      <text class="st1" transform="translate(9.2 242.5)"><tspan x="0" y="0">40</tspan></text>
    </g>
    <g class="st3">
      <text class="st1" transform="translate(9.2 301.7)"><tspan x="0" y="0">50</tspan></text>
    </g>
    <g class="st3">
      <text class="st1" transform="translate(9.2 361)"><tspan x="0" y="0">60</tspan></text>
    </g>
    <g class="st3">
      <text class="st1" transform="translate(9.2 420.3)"><tspan x="0" y="0">70</tspan></text>
    </g>
    <g class="st3">
      <text class="st1" transform="translate(9.2 479.5)"><tspan x="0" y="0">80</tspan></text>
    </g>
    <g class="st3">
      <text class="st1" transform="translate(9.2 538.8)"><tspan x="0" y="0">90</tspan></text>
    </g>
    <g class="st4">
      <text class="st1" transform="translate(216.3 64.7)"><tspan x="0" y="0">10</tspan></text>
    </g>
    <g class="st4">
      <text class="st1" transform="translate(216.3 123.9)"><tspan x="0" y="0">20</tspan></text>
    </g>
    <g class="st4">
      <text class="st1" transform="translate(216.3 183.2)"><tspan x="0" y="0">30</tspan></text>
    </g>
    <g class="st4">
      <text class="st1" transform="translate(216.3 242.5)"><tspan x="0" y="0">40</tspan></text>
    </g>
    <g class="st4">
      <text class="st1" transform="translate(216.3 301.7)"><tspan x="0" y="0">50</tspan></text>
    </g>
    <g class="st4">
      <text class="st1" transform="translate(216.3 361)"><tspan x="0" y="0">60</tspan></text>
    </g>
    <g class="st4">
      <text class="st1" transform="translate(216.3 420.3)"><tspan x="0" y="0">70</tspan></text>
    </g>
    <g class="st4">
      <text class="st1" transform="translate(216.3 479.5)"><tspan x="0" y="0">80</tspan></text>
    </g>
    <g class="st4">
      <text class="st1" transform="translate(216.3 538.8)"><tspan x="0" y="0">90</tspan></text>
    </g>
    <g class="st4">
      <text class="st1" transform="translate(425.5 64.7)"><tspan x="0" y="0">10</tspan></text>
    </g>
    <g class="st4">
      <text class="st1" transform="translate(425.5 123.9)"><tspan x="0" y="0">20</tspan></text>
    </g>
    <g class="st4">
      <text class="st1" transform="translate(425.5 183.2)"><tspan x="0" y="0">30</tspan></text>
    </g>
    <g class="st4">
      <text class="st1" transform="translate(425.5 242.5)"><tspan x="0" y="0">40</tspan></text>
    </g>
    <g class="st4">
      <text class="st1" transform="translate(425.5 301.7)"><tspan x="0" y="0">50</tspan></text>
    </g>
    <g class="st4">
      <text class="st1" transform="translate(425.5 361)"><tspan x="0" y="0">60</tspan></text>
    </g>
    <g class="st4">
      <text class="st1" transform="translate(425.5 420.3)"><tspan x="0" y="0">70</tspan></text>
    </g>
    <g class="st4">
      <text class="st1" transform="translate(425.5 479.5)"><tspan x="0" y="0">80</tspan></text>
    </g>
    <g class="st4">
      <text class="st1" transform="translate(425.5 538.8)"><tspan x="0" y="0">90</tspan></text>
    </g>
    <g class="st4">
      <text class="st1" transform="translate(634.7 64.7)"><tspan x="0" y="0">10</tspan></text>
    </g>
    <g class="st4">
      <text class="st1" transform="translate(634.7 123.9)"><tspan x="0" y="0">20</tspan></text>
    </g>
    <g class="st4">
      <text class="st1" transform="translate(634.7 183.2)"><tspan x="0" y="0">30</tspan></text>
    </g>
    <g class="st4">
      <text class="st1" transform="translate(634.7 242.5)"><tspan x="0" y="0">40</tspan></text>
    </g>
    <g class="st4">
      <text class="st1" transform="translate(634.7 301.7)"><tspan x="0" y="0">50</tspan></text>
    </g>
    <g class="st4">
      <text class="st1" transform="translate(634.7 361)"><tspan x="0" y="0">60</tspan></text>
    </g>
    <g class="st4">
      <text class="st1" transform="translate(634.7 420.3)"><tspan x="0" y="0">70</tspan></text>
    </g>
    <g class="st4">
      <text class="st1" transform="translate(634.7 479.5)"><tspan x="0" y="0">80</tspan></text>
    </g>
    <g class="st4">
      <text class="st1" transform="translate(634.7 538.8)"><tspan x="0" y="0">90</tspan></text>
    </g>
    <g class="st3">
      <text class="st1" transform="translate(827.5 64.7)"><tspan x="0" y="0">10</tspan></text>
    </g>
    <g class="st3">
      <text class="st1" transform="translate(827.5 123.9)"><tspan x="0" y="0">20</tspan></text>
    </g>
    <g class="st3">
      <text class="st1" transform="translate(827.5 183.2)"><tspan x="0" y="0">30</tspan></text>
    </g>
    <g class="st3">
      <text class="st1" transform="translate(827.5 242.5)"><tspan x="0" y="0">40</tspan></text>
    </g>
    <g class="st3">
      <text class="st1" transform="translate(827.5 301.7)"><tspan x="0" y="0">50</tspan></text>
    </g>
    <g class="st3">
      <text class="st1" transform="translate(827.5 361)"><tspan x="0" y="0">60</tspan></text>
    </g>
    <g class="st3">
      <text class="st1" transform="translate(827.5 420.3)"><tspan x="0" y="0">70</tspan></text>
    </g>
    <g class="st3">
      <text class="st1" transform="translate(827.5 479.5)"><tspan x="0" y="0">80</tspan></text>
    </g>
    <g class="st3">
      <text class="st1" transform="translate(827.5 538.8)"><tspan x="0" y="0">90</tspan></text>
    </g>
    <line class="st2" x1="421" y1="-2" x2="421" y2="595.3"/>
    <line class="st2" x1="210.5" y1="-2" x2="210.5" y2="595.3"/>
    <line class="st5" x1="21" y1="22" x2="21" y2="571.3"/>
    <line class="st5" x1="803.5" y1="44.8" x2="38.4" y2="44.8"/>
    <line class="st5" x1="803.5" y1="74.4" x2="38.4" y2="74.4"/>
    <line class="st5" x1="803.5" y1="104" x2="38.4" y2="104"/>
    <line class="st5" x1="803.5" y1="133.6" x2="38.4" y2="133.6"/>
    <line class="st5" x1="803.5" y1="163.2" x2="38.4" y2="163.2"/>
    <line class="st5" x1="803.5" y1="192.8" x2="38.4" y2="192.8"/>
    <line class="st5" x1="803.5" y1="222.5" x2="38.4" y2="222.5"/>
    <line class="st5" x1="803.5" y1="252.1" x2="38.4" y2="252.1"/>
    <line class="st5" x1="803.5" y1="281.7" x2="38.4" y2="281.7"/>
    <line class="st5" x1="803.5" y1="311.3" x2="38.4" y2="311.3"/>
    <line class="st5" x1="803.5" y1="340.9" x2="38.4" y2="340.9"/>
    <line class="st5" x1="803.5" y1="370.5" x2="38.4" y2="370.5"/>
    <line class="st5" x1="803.5" y1="400.1" x2="38.4" y2="400.1"/>
    <line class="st5" x1="803.5" y1="429.7" x2="38.4" y2="429.7"/>
    <line class="st5" x1="803.5" y1="459.3" x2="38.4" y2="459.3"/>
    <line class="st5" x1="803.5" y1="488.9" x2="38.4" y2="488.9"/>
    <line class="st5" x1="803.5" y1="518.6" x2="38.4" y2="518.6"/>
    <line class="st5" x1="803.5" y1="548.2" x2="38.4" y2="548.2"/>
    <line class="st5" x1="63.1" y1="22" x2="63.1" y2="571.3"/>
    <line class="st5" x1="105.2" y1="22" x2="105.2" y2="571.3"/>
    <line class="st5" x1="147.3" y1="22" x2="147.3" y2="571.3"/>
    <line class="st5" x1="189.4" y1="22" x2="189.4" y2="571.3"/>
    <line class="st5" x1="231.5" y1="22" x2="231.5" y2="571.3"/>
    <line class="st5" x1="273.6" y1="22" x2="273.6" y2="571.3"/>
    <line class="st5" x1="315.7" y1="22" x2="315.7" y2="571.3"/>
    <line class="st5" x1="357.8" y1="22" x2="357.8" y2="571.3"/>
    <line class="st5" x1="399.9" y1="22" x2="399.9" y2="571.3"/>
    <line class="st5" x1="442" y1="22" x2="442" y2="571.3"/>
    <line class="st5" x1="484.1" y1="22" x2="484.1" y2="571.3"/>
    <line class="st5" x1="526.2" y1="22" x2="526.2" y2="571.3"/>
    <line class="st5" x1="568.3" y1="22" x2="568.3" y2="571.3"/>
    <line class="st5" x1="610.4" y1="22" x2="610.4" y2="571.3"/>
    <line class="st5" x1="652.5" y1="22" x2="652.5" y2="571.3"/>
    <line class="st5" x1="694.6" y1="22" x2="694.6" y2="571.3"/>
    <line class="st5" x1="736.7" y1="22" x2="736.7" y2="571.3"/>
    <line class="st5" x1="778.8" y1="22" x2="778.8" y2="571.3"/>
    <line class="st5" x1="820.9" y1="22" x2="820.9" y2="571.3"/>
    <line class="st2" x1="631.4" y1="-2" x2="631.4" y2="595.3"/>
    <line class="st2" y1="297.7" x2="841.9" y2="297.7"/>
    <line class="st2" y1="446.5" x2="841.9" y2="446.5"/>
    <line class="st2" y1="148.8" x2="841.9" y2="148.8"/>
  </g>
</svg>