<?xml version="1.0" encoding="UTF-8"?>
<svg id="_圖層_1" data-name="圖層_1" xmlns="http://www.w3.org/2000/svg" viewBox="0 0 841.92 597.36">
  <defs>
    <style>
      .cls-1 {
        opacity: .03;
      }

      .cls-2 {
        fill: none;
        opacity: .07;
        stroke: #091021;
        stroke-miterlimit: 10;
      }

      .cls-3 {
        font-family: MicrosoftJhengHeiBold, 'Microsoft JhengHei';
        font-size: 8px;
        opacity: .3;
      }

      .cls-4 {
        opacity: 0;
      }
    </style>
  </defs>
  <rect class="cls-1" y="2.04" width="42.1" height="29.77"/>
  <rect class="cls-4" x="42.1" y="2.04" width="42.1" height="29.77"/>
  <rect class="cls-1" x="84.19" y="2.04" width="42.1" height="29.77"/>
  <rect class="cls-4" x="126.29" y="2.04" width="42.1" height="29.77"/>
  <rect class="cls-1" x="168.38" y="2.04" width="42.1" height="29.77"/>
  <rect class="cls-4" x="210.48" y="2.04" width="42.1" height="29.77"/>
  <rect class="cls-1" x="252.58" y="2.04" width="42.1" height="29.77"/>
  <rect class="cls-4" x="294.67" y="2.04" width="42.1" height="29.77"/>
  <rect class="cls-1" x="336.77" y="2.04" width="42.1" height="29.77"/>
  <rect class="cls-4" x="378.86" y="2.04" width="42.1" height="29.77"/>
  <rect class="cls-1" x="420.96" y="2.04" width="42.1" height="29.77"/>
  <rect class="cls-4" x="463.06" y="2.04" width="42.1" height="29.77"/>
  <rect class="cls-1" x="505.15" y="2.04" width="42.1" height="29.77"/>
  <rect class="cls-4" x="547.25" y="2.04" width="42.1" height="29.77"/>
  <rect class="cls-1" x="589.34" y="2.04" width="42.1" height="29.77"/>
  <rect class="cls-4" x="631.44" y="2.04" width="42.1" height="29.77"/>
  <rect class="cls-1" x="673.54" y="2.04" width="42.1" height="29.77"/>
  <rect class="cls-4" x="715.63" y="2.04" width="42.1" height="29.77"/>
  <rect class="cls-1" x="757.73" y="2.04" width="42.1" height="29.77"/>
  <rect class="cls-4" x="799.82" y="2.04" width="42.1" height="29.77"/>
  <rect class="cls-1" x="42.1" y="31.8" width="42.1" height="29.77"/>
  <rect class="cls-4" y="31.8" width="42.1" height="29.77"/>
  <rect class="cls-1" x="126.29" y="31.8" width="42.1" height="29.77"/>
  <rect class="cls-4" x="84.19" y="31.8" width="42.1" height="29.77"/>
  <rect class="cls-1" x="210.48" y="31.8" width="42.1" height="29.77"/>
  <rect class="cls-4" x="168.38" y="31.8" width="42.1" height="29.77"/>
  <rect class="cls-1" x="294.67" y="31.8" width="42.1" height="29.77"/>
  <rect class="cls-4" x="252.58" y="31.8" width="42.1" height="29.77"/>
  <rect class="cls-1" x="378.86" y="31.8" width="42.1" height="29.77"/>
  <rect class="cls-4" x="336.77" y="31.8" width="42.1" height="29.77"/>
  <rect class="cls-1" x="463.06" y="31.8" width="42.1" height="29.77"/>
  <rect class="cls-4" x="420.96" y="31.8" width="42.1" height="29.77"/>
  <rect class="cls-1" x="547.25" y="31.8" width="42.1" height="29.77"/>
  <rect class="cls-4" x="505.15" y="31.8" width="42.1" height="29.77"/>
  <rect class="cls-1" x="631.44" y="31.8" width="42.1" height="29.77"/>
  <rect class="cls-4" x="589.34" y="31.8" width="42.1" height="29.77"/>
  <rect class="cls-1" x="715.63" y="31.8" width="42.1" height="29.77"/>
  <rect class="cls-4" x="673.54" y="31.8" width="42.1" height="29.77"/>
  <rect class="cls-1" x="799.82" y="31.8" width="42.1" height="29.77"/>
  <rect class="cls-4" x="757.73" y="31.8" width="42.1" height="29.77"/>
  <rect class="cls-1" y="61.57" width="42.1" height="29.77"/>
  <rect class="cls-4" x="42.1" y="61.57" width="42.1" height="29.77"/>
  <rect class="cls-1" x="84.19" y="61.57" width="42.1" height="29.77"/>
  <rect class="cls-4" x="126.29" y="61.57" width="42.1" height="29.77"/>
  <rect class="cls-1" x="168.38" y="61.57" width="42.1" height="29.77"/>
  <rect class="cls-4" x="210.48" y="61.57" width="42.1" height="29.77"/>
  <rect class="cls-1" x="252.58" y="61.57" width="42.1" height="29.77"/>
  <rect class="cls-4" x="294.67" y="61.57" width="42.1" height="29.77"/>
  <rect class="cls-1" x="336.77" y="61.57" width="42.1" height="29.77"/>
  <rect class="cls-4" x="378.86" y="61.57" width="42.1" height="29.77"/>
  <rect class="cls-1" x="420.96" y="61.57" width="42.1" height="29.77"/>
  <rect class="cls-4" x="463.06" y="61.57" width="42.1" height="29.77"/>
  <rect class="cls-1" x="505.15" y="61.57" width="42.1" height="29.77"/>
  <rect class="cls-4" x="547.25" y="61.57" width="42.1" height="29.77"/>
  <rect class="cls-1" x="589.34" y="61.57" width="42.1" height="29.77"/>
  <rect class="cls-4" x="631.44" y="61.57" width="42.1" height="29.77"/>
  <rect class="cls-1" x="673.54" y="61.57" width="42.1" height="29.77"/>
  <rect class="cls-4" x="715.63" y="61.57" width="42.1" height="29.77"/>
  <rect class="cls-1" x="757.73" y="61.57" width="42.1" height="29.77"/>
  <rect class="cls-4" x="799.82" y="61.57" width="42.1" height="29.77"/>
  <rect class="cls-1" x="42.1" y="91.34" width="42.1" height="29.77"/>
  <rect class="cls-4" y="91.34" width="42.1" height="29.77"/>
  <rect class="cls-1" x="126.29" y="91.34" width="42.1" height="29.77"/>
  <rect class="cls-4" x="84.19" y="91.34" width="42.1" height="29.77"/>
  <rect class="cls-1" x="210.48" y="91.34" width="42.1" height="29.77"/>
  <rect class="cls-4" x="168.38" y="91.34" width="42.1" height="29.77"/>
  <rect class="cls-1" x="294.67" y="91.34" width="42.1" height="29.77"/>
  <rect class="cls-4" x="252.58" y="91.34" width="42.1" height="29.77"/>
  <rect class="cls-1" x="378.86" y="91.34" width="42.1" height="29.77"/>
  <rect class="cls-4" x="336.77" y="91.34" width="42.1" height="29.77"/>
  <rect class="cls-1" x="463.06" y="91.34" width="42.1" height="29.77"/>
  <rect class="cls-4" x="420.96" y="91.34" width="42.1" height="29.77"/>
  <rect class="cls-1" x="547.25" y="91.34" width="42.1" height="29.77"/>
  <rect class="cls-4" x="505.15" y="91.34" width="42.1" height="29.77"/>
  <rect class="cls-1" x="631.44" y="91.34" width="42.1" height="29.77"/>
  <rect class="cls-4" x="589.34" y="91.34" width="42.1" height="29.77"/>
  <rect class="cls-1" x="715.63" y="91.34" width="42.1" height="29.77"/>
  <rect class="cls-4" x="673.54" y="91.34" width="42.1" height="29.77"/>
  <rect class="cls-1" x="799.82" y="91.34" width="42.1" height="29.77"/>
  <rect class="cls-4" x="757.73" y="91.34" width="42.1" height="29.77"/>
  <rect class="cls-1" y="121.1" width="42.1" height="29.77"/>
  <rect class="cls-4" x="42.1" y="121.1" width="42.1" height="29.77"/>
  <rect class="cls-1" x="84.19" y="121.1" width="42.1" height="29.77"/>
  <rect class="cls-4" x="126.29" y="121.1" width="42.1" height="29.77"/>
  <rect class="cls-1" x="168.38" y="121.1" width="42.1" height="29.77"/>
  <rect class="cls-4" x="210.48" y="121.1" width="42.1" height="29.77"/>
  <rect class="cls-1" x="252.58" y="121.1" width="42.1" height="29.77"/>
  <rect class="cls-4" x="294.67" y="121.1" width="42.1" height="29.77"/>
  <rect class="cls-1" x="336.77" y="121.1" width="42.1" height="29.77"/>
  <rect class="cls-4" x="378.86" y="121.1" width="42.1" height="29.77"/>
  <rect class="cls-1" x="420.96" y="121.1" width="42.1" height="29.77"/>
  <rect class="cls-4" x="463.06" y="121.1" width="42.1" height="29.77"/>
  <rect class="cls-1" x="505.15" y="121.1" width="42.1" height="29.77"/>
  <rect class="cls-4" x="547.25" y="121.1" width="42.1" height="29.77"/>
  <rect class="cls-1" x="589.34" y="121.1" width="42.1" height="29.77"/>
  <rect class="cls-4" x="631.44" y="121.1" width="42.1" height="29.77"/>
  <rect class="cls-1" x="673.54" y="121.1" width="42.1" height="29.77"/>
  <rect class="cls-4" x="715.63" y="121.1" width="42.1" height="29.77"/>
  <rect class="cls-1" x="757.73" y="121.1" width="42.1" height="29.77"/>
  <rect class="cls-4" x="799.82" y="121.1" width="42.1" height="29.77"/>
  <rect class="cls-1" x="42.1" y="150.87" width="42.1" height="29.77"/>
  <rect class="cls-4" y="150.87" width="42.1" height="29.77"/>
  <rect class="cls-1" x="126.29" y="150.87" width="42.1" height="29.77"/>
  <rect class="cls-4" x="84.19" y="150.87" width="42.1" height="29.77"/>
  <rect class="cls-1" x="210.48" y="150.87" width="42.1" height="29.77"/>
  <rect class="cls-4" x="168.38" y="150.87" width="42.1" height="29.77"/>
  <rect class="cls-1" x="294.67" y="150.87" width="42.1" height="29.77"/>
  <rect class="cls-4" x="252.58" y="150.87" width="42.1" height="29.77"/>
  <rect class="cls-1" x="378.86" y="150.87" width="42.1" height="29.77"/>
  <rect class="cls-4" x="336.77" y="150.87" width="42.1" height="29.77"/>
  <rect class="cls-1" x="463.06" y="150.87" width="42.1" height="29.77"/>
  <rect class="cls-4" x="420.96" y="150.87" width="42.1" height="29.77"/>
  <rect class="cls-1" x="547.25" y="150.87" width="42.1" height="29.77"/>
  <rect class="cls-4" x="505.15" y="150.87" width="42.1" height="29.77"/>
  <rect class="cls-1" x="631.44" y="150.87" width="42.1" height="29.77"/>
  <rect class="cls-4" x="589.34" y="150.87" width="42.1" height="29.77"/>
  <rect class="cls-1" x="715.63" y="150.87" width="42.1" height="29.77"/>
  <rect class="cls-4" x="673.54" y="150.87" width="42.1" height="29.77"/>
  <rect class="cls-1" x="799.82" y="150.87" width="42.1" height="29.77"/>
  <rect class="cls-4" x="757.73" y="150.87" width="42.1" height="29.77"/>
  <rect class="cls-1" y="180.63" width="42.1" height="29.77"/>
  <rect class="cls-4" x="42.1" y="180.63" width="42.1" height="29.77"/>
  <rect class="cls-1" x="84.19" y="180.63" width="42.1" height="29.77"/>
  <rect class="cls-4" x="126.29" y="180.63" width="42.1" height="29.77"/>
  <rect class="cls-1" x="168.38" y="180.63" width="42.1" height="29.77"/>
  <rect class="cls-4" x="210.48" y="180.63" width="42.1" height="29.77"/>
  <rect class="cls-1" x="252.58" y="180.63" width="42.1" height="29.77"/>
  <rect class="cls-4" x="294.67" y="180.63" width="42.1" height="29.77"/>
  <rect class="cls-1" x="336.77" y="180.63" width="42.1" height="29.77"/>
  <rect class="cls-4" x="378.86" y="180.63" width="42.1" height="29.77"/>
  <rect class="cls-1" x="420.96" y="180.63" width="42.1" height="29.77"/>
  <rect class="cls-4" x="463.06" y="180.63" width="42.1" height="29.77"/>
  <rect class="cls-1" x="505.15" y="180.63" width="42.1" height="29.77"/>
  <rect class="cls-4" x="547.25" y="180.63" width="42.1" height="29.77"/>
  <rect class="cls-1" x="589.34" y="180.63" width="42.1" height="29.77"/>
  <rect class="cls-4" x="631.44" y="180.63" width="42.1" height="29.77"/>
  <rect class="cls-1" x="673.54" y="180.63" width="42.1" height="29.77"/>
  <rect class="cls-4" x="715.63" y="180.63" width="42.1" height="29.77"/>
  <rect class="cls-1" x="757.73" y="180.63" width="42.1" height="29.77"/>
  <rect class="cls-4" x="799.82" y="180.63" width="42.1" height="29.77"/>
  <rect class="cls-1" x="42.1" y="210.4" width="42.1" height="29.77"/>
  <rect class="cls-4" y="210.4" width="42.1" height="29.77"/>
  <rect class="cls-1" x="126.29" y="210.4" width="42.1" height="29.77"/>
  <rect class="cls-4" x="84.19" y="210.4" width="42.1" height="29.77"/>
  <rect class="cls-1" x="210.48" y="210.4" width="42.1" height="29.77"/>
  <rect class="cls-4" x="168.38" y="210.4" width="42.1" height="29.77"/>
  <rect class="cls-1" x="294.67" y="210.4" width="42.1" height="29.77"/>
  <rect class="cls-4" x="252.58" y="210.4" width="42.1" height="29.77"/>
  <rect class="cls-1" x="378.86" y="210.4" width="42.1" height="29.77"/>
  <rect class="cls-4" x="336.77" y="210.4" width="42.1" height="29.77"/>
  <rect class="cls-1" x="463.06" y="210.4" width="42.1" height="29.77"/>
  <rect class="cls-4" x="420.96" y="210.4" width="42.1" height="29.77"/>
  <rect class="cls-1" x="547.25" y="210.4" width="42.1" height="29.77"/>
  <rect class="cls-4" x="505.15" y="210.4" width="42.1" height="29.77"/>
  <rect class="cls-1" x="631.44" y="210.4" width="42.1" height="29.77"/>
  <rect class="cls-4" x="589.34" y="210.4" width="42.1" height="29.77"/>
  <rect class="cls-1" x="715.63" y="210.4" width="42.1" height="29.77"/>
  <rect class="cls-4" x="673.54" y="210.4" width="42.1" height="29.77"/>
  <rect class="cls-1" x="799.82" y="210.4" width="42.1" height="29.77"/>
  <rect class="cls-4" x="757.73" y="210.4" width="42.1" height="29.77"/>
  <rect class="cls-1" y="240.17" width="42.1" height="29.77"/>
  <rect class="cls-4" x="42.1" y="240.17" width="42.1" height="29.77"/>
  <rect class="cls-1" x="84.19" y="240.17" width="42.1" height="29.77"/>
  <rect class="cls-4" x="126.29" y="240.17" width="42.1" height="29.77"/>
  <rect class="cls-1" x="168.38" y="240.17" width="42.1" height="29.77"/>
  <rect class="cls-4" x="210.48" y="240.17" width="42.1" height="29.77"/>
  <rect class="cls-1" x="252.58" y="240.17" width="42.1" height="29.77"/>
  <rect class="cls-4" x="294.67" y="240.17" width="42.1" height="29.77"/>
  <rect class="cls-1" x="336.77" y="240.17" width="42.1" height="29.77"/>
  <rect class="cls-4" x="378.86" y="240.17" width="42.1" height="29.77"/>
  <rect class="cls-1" x="420.96" y="240.17" width="42.1" height="29.77"/>
  <rect class="cls-4" x="463.06" y="240.17" width="42.1" height="29.77"/>
  <rect class="cls-1" x="505.15" y="240.17" width="42.1" height="29.77"/>
  <rect class="cls-4" x="547.25" y="240.17" width="42.1" height="29.77"/>
  <rect class="cls-1" x="589.34" y="240.17" width="42.1" height="29.77"/>
  <rect class="cls-4" x="631.44" y="240.17" width="42.1" height="29.77"/>
  <rect class="cls-1" x="673.54" y="240.17" width="42.1" height="29.77"/>
  <rect class="cls-4" x="715.63" y="240.17" width="42.1" height="29.77"/>
  <rect class="cls-1" x="757.73" y="240.17" width="42.1" height="29.77"/>
  <rect class="cls-4" x="799.82" y="240.17" width="42.1" height="29.77"/>
  <rect class="cls-1" x="42.1" y="269.93" width="42.1" height="29.77"/>
  <rect class="cls-4" y="269.93" width="42.1" height="29.77"/>
  <rect class="cls-1" x="126.29" y="269.93" width="42.1" height="29.77"/>
  <rect class="cls-4" x="84.19" y="269.93" width="42.1" height="29.77"/>
  <rect class="cls-1" x="210.48" y="269.93" width="42.1" height="29.77"/>
  <rect class="cls-4" x="168.38" y="269.93" width="42.1" height="29.77"/>
  <rect class="cls-1" x="294.67" y="269.93" width="42.1" height="29.77"/>
  <rect class="cls-4" x="252.58" y="269.93" width="42.1" height="29.77"/>
  <rect class="cls-1" x="378.86" y="269.93" width="42.1" height="29.77"/>
  <rect class="cls-4" x="336.77" y="269.93" width="42.1" height="29.77"/>
  <rect class="cls-1" x="463.06" y="269.93" width="42.1" height="29.77"/>
  <rect class="cls-4" x="420.96" y="269.93" width="42.1" height="29.77"/>
  <rect class="cls-1" x="547.25" y="269.93" width="42.1" height="29.77"/>
  <rect class="cls-4" x="505.15" y="269.93" width="42.1" height="29.77"/>
  <rect class="cls-1" x="631.44" y="269.93" width="42.1" height="29.77"/>
  <rect class="cls-4" x="589.34" y="269.93" width="42.1" height="29.77"/>
  <rect class="cls-1" x="715.63" y="269.93" width="42.1" height="29.77"/>
  <rect class="cls-4" x="673.54" y="269.93" width="42.1" height="29.77"/>
  <rect class="cls-1" x="799.82" y="269.93" width="42.1" height="29.77"/>
  <rect class="cls-4" x="757.73" y="269.93" width="42.1" height="29.77"/>
  <rect class="cls-1" y="299.7" width="42.1" height="29.77"/>
  <rect class="cls-4" x="42.1" y="299.7" width="42.1" height="29.77"/>
  <rect class="cls-1" x="84.19" y="299.7" width="42.1" height="29.77"/>
  <rect class="cls-4" x="126.29" y="299.7" width="42.1" height="29.77"/>
  <rect class="cls-1" x="168.38" y="299.7" width="42.1" height="29.77"/>
  <rect class="cls-4" x="210.48" y="299.7" width="42.1" height="29.77"/>
  <rect class="cls-1" x="252.58" y="299.7" width="42.1" height="29.77"/>
  <rect class="cls-4" x="294.67" y="299.7" width="42.1" height="29.77"/>
  <rect class="cls-1" x="336.77" y="299.7" width="42.1" height="29.77"/>
  <rect class="cls-4" x="378.86" y="299.7" width="42.1" height="29.77"/>
  <rect class="cls-1" x="420.96" y="299.7" width="42.1" height="29.77"/>
  <rect class="cls-4" x="463.06" y="299.7" width="42.1" height="29.77"/>
  <rect class="cls-1" x="505.15" y="299.7" width="42.1" height="29.77"/>
  <rect class="cls-4" x="547.25" y="299.7" width="42.1" height="29.77"/>
  <rect class="cls-1" x="589.34" y="299.7" width="42.1" height="29.77"/>
  <rect class="cls-4" x="631.44" y="299.7" width="42.1" height="29.77"/>
  <rect class="cls-1" x="673.54" y="299.7" width="42.1" height="29.77"/>
  <rect class="cls-4" x="715.63" y="299.7" width="42.1" height="29.77"/>
  <rect class="cls-1" x="757.73" y="299.7" width="42.1" height="29.77"/>
  <rect class="cls-4" x="799.82" y="299.7" width="42.1" height="29.77"/>
  <rect class="cls-1" x="42.1" y="329.46" width="42.1" height="29.77"/>
  <rect class="cls-4" y="329.46" width="42.1" height="29.77"/>
  <rect class="cls-1" x="126.29" y="329.46" width="42.1" height="29.77"/>
  <rect class="cls-4" x="84.19" y="329.46" width="42.1" height="29.77"/>
  <rect class="cls-1" x="210.48" y="329.46" width="42.1" height="29.77"/>
  <rect class="cls-4" x="168.38" y="329.46" width="42.1" height="29.77"/>
  <rect class="cls-1" x="294.67" y="329.46" width="42.1" height="29.77"/>
  <rect class="cls-4" x="252.58" y="329.46" width="42.1" height="29.77"/>
  <rect class="cls-1" x="378.86" y="329.46" width="42.1" height="29.77"/>
  <rect class="cls-4" x="336.77" y="329.46" width="42.1" height="29.77"/>
  <rect class="cls-1" x="463.06" y="329.46" width="42.1" height="29.77"/>
  <rect class="cls-4" x="420.96" y="329.46" width="42.1" height="29.77"/>
  <rect class="cls-1" x="547.25" y="329.46" width="42.1" height="29.77"/>
  <rect class="cls-4" x="505.15" y="329.46" width="42.1" height="29.77"/>
  <rect class="cls-1" x="631.44" y="329.46" width="42.1" height="29.77"/>
  <rect class="cls-4" x="589.34" y="329.46" width="42.1" height="29.77"/>
  <rect class="cls-1" x="715.63" y="329.46" width="42.1" height="29.77"/>
  <rect class="cls-4" x="673.54" y="329.46" width="42.1" height="29.77"/>
  <rect class="cls-1" x="799.82" y="329.46" width="42.1" height="29.77"/>
  <rect class="cls-4" x="757.73" y="329.46" width="42.1" height="29.77"/>
  <rect class="cls-1" y="359.23" width="42.1" height="29.77"/>
  <rect class="cls-4" x="42.1" y="359.23" width="42.1" height="29.77"/>
  <rect class="cls-1" x="84.19" y="359.23" width="42.1" height="29.77"/>
  <rect class="cls-4" x="126.29" y="359.23" width="42.1" height="29.77"/>
  <rect class="cls-1" x="168.38" y="359.23" width="42.1" height="29.77"/>
  <rect class="cls-4" x="210.48" y="359.23" width="42.1" height="29.77"/>
  <rect class="cls-1" x="252.58" y="359.23" width="42.1" height="29.77"/>
  <rect class="cls-4" x="294.67" y="359.23" width="42.1" height="29.77"/>
  <rect class="cls-1" x="336.77" y="359.23" width="42.1" height="29.77"/>
  <rect class="cls-4" x="378.86" y="359.23" width="42.1" height="29.77"/>
  <rect class="cls-1" x="420.96" y="359.23" width="42.1" height="29.77"/>
  <rect class="cls-4" x="463.06" y="359.23" width="42.1" height="29.77"/>
  <rect class="cls-1" x="505.15" y="359.23" width="42.1" height="29.77"/>
  <rect class="cls-4" x="547.25" y="359.23" width="42.1" height="29.77"/>
  <rect class="cls-1" x="589.34" y="359.23" width="42.1" height="29.77"/>
  <rect class="cls-4" x="631.44" y="359.23" width="42.1" height="29.77"/>
  <rect class="cls-1" x="673.54" y="359.23" width="42.1" height="29.77"/>
  <rect class="cls-4" x="715.63" y="359.23" width="42.1" height="29.77"/>
  <rect class="cls-1" x="757.73" y="359.23" width="42.1" height="29.77"/>
  <rect class="cls-4" x="799.82" y="359.23" width="42.1" height="29.77"/>
  <rect class="cls-1" x="42.1" y="389" width="42.1" height="29.77"/>
  <rect class="cls-4" y="389" width="42.1" height="29.77"/>
  <rect class="cls-1" x="126.29" y="389" width="42.1" height="29.77"/>
  <rect class="cls-4" x="84.19" y="389" width="42.1" height="29.77"/>
  <rect class="cls-1" x="210.48" y="389" width="42.1" height="29.77"/>
  <rect class="cls-4" x="168.38" y="389" width="42.1" height="29.77"/>
  <rect class="cls-1" x="294.67" y="389" width="42.1" height="29.77"/>
  <rect class="cls-4" x="252.58" y="389" width="42.1" height="29.77"/>
  <rect class="cls-1" x="378.86" y="389" width="42.1" height="29.77"/>
  <rect class="cls-4" x="336.77" y="389" width="42.1" height="29.77"/>
  <rect class="cls-1" x="463.06" y="389" width="42.1" height="29.77"/>
  <rect class="cls-4" x="420.96" y="389" width="42.1" height="29.77"/>
  <rect class="cls-1" x="547.25" y="389" width="42.1" height="29.77"/>
  <rect class="cls-4" x="505.15" y="389" width="42.1" height="29.77"/>
  <rect class="cls-1" x="631.44" y="389" width="42.1" height="29.77"/>
  <rect class="cls-4" x="589.34" y="389" width="42.1" height="29.77"/>
  <rect class="cls-1" x="715.63" y="389" width="42.1" height="29.77"/>
  <rect class="cls-4" x="673.54" y="389" width="42.1" height="29.77"/>
  <rect class="cls-1" x="799.82" y="389" width="42.1" height="29.77"/>
  <rect class="cls-4" x="757.73" y="389" width="42.1" height="29.77"/>
  <rect class="cls-1" y="418.76" width="42.1" height="29.77"/>
  <rect class="cls-4" x="42.1" y="418.76" width="42.1" height="29.77"/>
  <rect class="cls-1" x="84.19" y="418.76" width="42.1" height="29.77"/>
  <rect class="cls-4" x="126.29" y="418.76" width="42.1" height="29.77"/>
  <rect class="cls-1" x="168.38" y="418.76" width="42.1" height="29.77"/>
  <rect class="cls-4" x="210.48" y="418.76" width="42.1" height="29.77"/>
  <rect class="cls-1" x="252.58" y="418.76" width="42.1" height="29.77"/>
  <rect class="cls-4" x="294.67" y="418.76" width="42.1" height="29.77"/>
  <rect class="cls-1" x="336.77" y="418.76" width="42.1" height="29.77"/>
  <rect class="cls-4" x="378.86" y="418.76" width="42.1" height="29.77"/>
  <rect class="cls-1" x="420.96" y="418.76" width="42.1" height="29.77"/>
  <rect class="cls-4" x="463.06" y="418.76" width="42.1" height="29.77"/>
  <rect class="cls-1" x="505.15" y="418.76" width="42.1" height="29.77"/>
  <rect class="cls-4" x="547.25" y="418.76" width="42.1" height="29.77"/>
  <rect class="cls-1" x="589.34" y="418.76" width="42.1" height="29.77"/>
  <rect class="cls-4" x="631.44" y="418.76" width="42.1" height="29.77"/>
  <rect class="cls-1" x="673.54" y="418.76" width="42.1" height="29.77"/>
  <rect class="cls-4" x="715.63" y="418.76" width="42.1" height="29.77"/>
  <rect class="cls-1" x="757.73" y="418.76" width="42.1" height="29.77"/>
  <rect class="cls-4" x="799.82" y="418.76" width="42.1" height="29.77"/>
  <rect class="cls-1" x="42.1" y="448.53" width="42.1" height="29.77"/>
  <rect class="cls-4" y="448.53" width="42.1" height="29.77"/>
  <rect class="cls-1" x="126.29" y="448.53" width="42.1" height="29.77"/>
  <rect class="cls-4" x="84.19" y="448.53" width="42.1" height="29.77"/>
  <rect class="cls-1" x="210.48" y="448.53" width="42.1" height="29.77"/>
  <rect class="cls-4" x="168.38" y="448.53" width="42.1" height="29.77"/>
  <rect class="cls-1" x="294.67" y="448.53" width="42.1" height="29.77"/>
  <rect class="cls-4" x="252.58" y="448.53" width="42.1" height="29.77"/>
  <rect class="cls-1" x="378.86" y="448.53" width="42.1" height="29.77"/>
  <rect class="cls-4" x="336.77" y="448.53" width="42.1" height="29.77"/>
  <rect class="cls-1" x="463.06" y="448.53" width="42.1" height="29.77"/>
  <rect class="cls-4" x="420.96" y="448.53" width="42.1" height="29.77"/>
  <rect class="cls-1" x="547.25" y="448.53" width="42.1" height="29.77"/>
  <rect class="cls-4" x="505.15" y="448.53" width="42.1" height="29.77"/>
  <rect class="cls-1" x="631.44" y="448.53" width="42.1" height="29.77"/>
  <rect class="cls-4" x="589.34" y="448.53" width="42.1" height="29.77"/>
  <rect class="cls-1" x="715.63" y="448.53" width="42.1" height="29.77"/>
  <rect class="cls-4" x="673.54" y="448.53" width="42.1" height="29.77"/>
  <rect class="cls-1" x="799.82" y="448.53" width="42.1" height="29.77"/>
  <rect class="cls-4" x="757.73" y="448.53" width="42.1" height="29.77"/>
  <rect class="cls-1" y="478.29" width="42.1" height="29.77"/>
  <rect class="cls-4" x="42.1" y="478.29" width="42.1" height="29.77"/>
  <rect class="cls-1" x="84.19" y="478.29" width="42.1" height="29.77"/>
  <rect class="cls-4" x="126.29" y="478.29" width="42.1" height="29.77"/>
  <rect class="cls-1" x="168.38" y="478.29" width="42.1" height="29.77"/>
  <rect class="cls-4" x="210.48" y="478.29" width="42.1" height="29.77"/>
  <rect class="cls-1" x="252.58" y="478.29" width="42.1" height="29.77"/>
  <rect class="cls-4" x="294.67" y="478.29" width="42.1" height="29.77"/>
  <rect class="cls-1" x="336.77" y="478.29" width="42.1" height="29.77"/>
  <rect class="cls-4" x="378.86" y="478.29" width="42.1" height="29.77"/>
  <rect class="cls-1" x="420.96" y="478.29" width="42.1" height="29.77"/>
  <rect class="cls-4" x="463.06" y="478.29" width="42.1" height="29.77"/>
  <rect class="cls-1" x="505.15" y="478.29" width="42.1" height="29.77"/>
  <rect class="cls-4" x="547.25" y="478.29" width="42.1" height="29.77"/>
  <rect class="cls-1" x="589.34" y="478.29" width="42.1" height="29.77"/>
  <rect class="cls-4" x="631.44" y="478.29" width="42.1" height="29.77"/>
  <rect class="cls-1" x="673.54" y="478.29" width="42.1" height="29.77"/>
  <rect class="cls-4" x="715.63" y="478.29" width="42.1" height="29.77"/>
  <rect class="cls-1" x="757.73" y="478.29" width="42.1" height="29.77"/>
  <rect class="cls-4" x="799.82" y="478.29" width="42.1" height="29.77"/>
  <rect class="cls-1" x="42.1" y="508.06" width="42.1" height="29.77"/>
  <rect class="cls-4" y="508.06" width="42.1" height="29.77"/>
  <rect class="cls-1" x="126.29" y="508.06" width="42.1" height="29.77"/>
  <rect class="cls-4" x="84.19" y="508.06" width="42.1" height="29.77"/>
  <rect class="cls-1" x="210.48" y="508.06" width="42.1" height="29.77"/>
  <rect class="cls-4" x="168.38" y="508.06" width="42.1" height="29.77"/>
  <rect class="cls-1" x="294.67" y="508.06" width="42.1" height="29.77"/>
  <rect class="cls-4" x="252.58" y="508.06" width="42.1" height="29.77"/>
  <rect class="cls-1" x="378.86" y="508.06" width="42.1" height="29.77"/>
  <rect class="cls-4" x="336.77" y="508.06" width="42.1" height="29.77"/>
  <rect class="cls-1" x="463.06" y="508.06" width="42.1" height="29.77"/>
  <rect class="cls-4" x="420.96" y="508.06" width="42.1" height="29.77"/>
  <rect class="cls-1" x="547.25" y="508.06" width="42.1" height="29.77"/>
  <rect class="cls-4" x="505.15" y="508.06" width="42.1" height="29.77"/>
  <rect class="cls-1" x="631.44" y="508.06" width="42.1" height="29.77"/>
  <rect class="cls-4" x="589.34" y="508.06" width="42.1" height="29.77"/>
  <rect class="cls-1" x="715.63" y="508.06" width="42.1" height="29.77"/>
  <rect class="cls-4" x="673.54" y="508.06" width="42.1" height="29.77"/>
  <rect class="cls-1" x="799.82" y="508.06" width="42.1" height="29.77"/>
  <rect class="cls-4" x="757.73" y="508.06" width="42.1" height="29.77"/>
  <rect class="cls-1" y="537.83" width="42.1" height="29.77"/>
  <rect class="cls-4" x="42.1" y="537.83" width="42.1" height="29.77"/>
  <rect class="cls-1" x="84.19" y="537.83" width="42.1" height="29.77"/>
  <rect class="cls-4" x="126.29" y="537.83" width="42.1" height="29.77"/>
  <rect class="cls-1" x="168.38" y="537.83" width="42.1" height="29.77"/>
  <rect class="cls-4" x="210.48" y="537.83" width="42.1" height="29.77"/>
  <rect class="cls-1" x="252.58" y="537.83" width="42.1" height="29.77"/>
  <rect class="cls-4" x="294.67" y="537.83" width="42.1" height="29.77"/>
  <rect class="cls-1" x="336.77" y="537.83" width="42.1" height="29.77"/>
  <rect class="cls-4" x="378.86" y="537.83" width="42.1" height="29.77"/>
  <rect class="cls-1" x="420.96" y="537.83" width="42.1" height="29.77"/>
  <rect class="cls-4" x="463.06" y="537.83" width="42.1" height="29.77"/>
  <rect class="cls-1" x="505.15" y="537.83" width="42.1" height="29.77"/>
  <rect class="cls-4" x="547.25" y="537.83" width="42.1" height="29.77"/>
  <rect class="cls-1" x="589.34" y="537.83" width="42.1" height="29.77"/>
  <rect class="cls-4" x="631.44" y="537.83" width="42.1" height="29.77"/>
  <rect class="cls-1" x="673.54" y="537.83" width="42.1" height="29.77"/>
  <rect class="cls-4" x="715.63" y="537.83" width="42.1" height="29.77"/>
  <rect class="cls-1" x="757.73" y="537.83" width="42.1" height="29.77"/>
  <rect class="cls-4" x="799.82" y="537.83" width="42.1" height="29.77"/>
  <rect class="cls-1" x="42.1" y="567.59" width="42.1" height="29.77"/>
  <rect class="cls-4" y="567.59" width="42.1" height="29.77"/>
  <rect class="cls-1" x="126.29" y="567.59" width="42.1" height="29.77"/>
  <rect class="cls-4" x="84.19" y="567.59" width="42.1" height="29.77"/>
  <rect class="cls-1" x="210.48" y="567.59" width="42.1" height="29.77"/>
  <rect class="cls-4" x="168.38" y="567.59" width="42.1" height="29.77"/>
  <rect class="cls-1" x="294.67" y="567.59" width="42.1" height="29.77"/>
  <rect class="cls-4" x="252.58" y="567.59" width="42.1" height="29.77"/>
  <rect class="cls-1" x="378.86" y="567.59" width="42.1" height="29.77"/>
  <rect class="cls-4" x="336.77" y="567.59" width="42.1" height="29.77"/>
  <rect class="cls-1" x="463.06" y="567.59" width="42.1" height="29.77"/>
  <rect class="cls-4" x="420.96" y="567.59" width="42.1" height="29.77"/>
  <rect class="cls-1" x="547.25" y="567.59" width="42.1" height="29.77"/>
  <rect class="cls-4" x="505.15" y="567.59" width="42.1" height="29.77"/>
  <rect class="cls-1" x="631.44" y="567.59" width="42.1" height="29.77"/>
  <rect class="cls-4" x="589.34" y="567.59" width="42.1" height="29.77"/>
  <rect class="cls-1" x="715.63" y="567.59" width="42.1" height="29.77"/>
  <rect class="cls-4" x="673.54" y="567.59" width="42.1" height="29.77"/>
  <rect class="cls-1" x="799.82" y="567.59" width="42.1" height="29.77"/>
  <rect class="cls-4" x="757.73" y="567.59" width="42.1" height="29.77"/>
  <text class="cls-3" transform="translate(79.14 13.4)"><tspan x="0" y="0">10</tspan></text>
  <text class="cls-3" transform="translate(163.59 13.4)"><tspan x="0" y="0">20</tspan></text>
  <text class="cls-3" transform="translate(248.5 13.4)"><tspan x="0" y="0">30</tspan></text>
  <text class="cls-3" transform="translate(332.96 13.4)"><tspan x="0" y="0">40</tspan></text>
  <text class="cls-3" transform="translate(416.32 13.4)"><tspan x="0" y="0">50</tspan></text>
  <text class="cls-3" transform="translate(500.77 13.4)"><tspan x="0" y="0">60</tspan></text>
  <text class="cls-3" transform="translate(585.69 13.4)"><tspan x="0" y="0">70</tspan></text>
  <text class="cls-3" transform="translate(670.14 13.4)"><tspan x="0" y="0">80</tspan></text>
  <text class="cls-3" transform="translate(753.6 13.4)"><tspan x="0" y="0">90</tspan></text>
  <text class="cls-3" transform="translate(79.14 590.62)"><tspan x="0" y="0">10</tspan></text>
  <text class="cls-3" transform="translate(163.59 590.62)"><tspan x="0" y="0">20</tspan></text>
  <text class="cls-3" transform="translate(248.5 590.62)"><tspan x="0" y="0">30</tspan></text>
  <text class="cls-3" transform="translate(332.96 590.62)"><tspan x="0" y="0">40</tspan></text>
  <text class="cls-3" transform="translate(416.32 590.62)"><tspan x="0" y="0">50</tspan></text>
  <text class="cls-3" transform="translate(500.77 590.62)"><tspan x="0" y="0">60</tspan></text>
  <text class="cls-3" transform="translate(585.69 590.62)"><tspan x="0" y="0">70</tspan></text>
  <text class="cls-3" transform="translate(670.14 590.62)"><tspan x="0" y="0">80</tspan></text>
  <text class="cls-3" transform="translate(753.6 590.62)"><tspan x="0" y="0">90</tspan></text>
  <text class="cls-3" transform="translate(9.2 66.7)"><tspan x="0" y="0">10</tspan></text>
  <text class="cls-3" transform="translate(9.2 125.97)"><tspan x="0" y="0">20</tspan></text>
  <text class="cls-3" transform="translate(9.2 185.24)"><tspan x="0" y="0">30</tspan></text>
  <text class="cls-3" transform="translate(9.2 244.5)"><tspan x="0" y="0">40</tspan></text>
  <text class="cls-3" transform="translate(9.2 303.77)"><tspan x="0" y="0">50</tspan></text>
  <text class="cls-3" transform="translate(9.2 363.03)"><tspan x="0" y="0">60</tspan></text>
  <text class="cls-3" transform="translate(9.2 422.3)"><tspan x="0" y="0">70</tspan></text>
  <text class="cls-3" transform="translate(9.2 481.56)"><tspan x="0" y="0">80</tspan></text>
  <text class="cls-3" transform="translate(9.2 540.83)"><tspan x="0" y="0">90</tspan></text>
  <text class="cls-3" transform="translate(827.54 66.7)"><tspan x="0" y="0">10</tspan></text>
  <text class="cls-3" transform="translate(827.54 125.97)"><tspan x="0" y="0">20</tspan></text>
  <text class="cls-3" transform="translate(827.54 185.24)"><tspan x="0" y="0">30</tspan></text>
  <text class="cls-3" transform="translate(827.54 244.5)"><tspan x="0" y="0">40</tspan></text>
  <text class="cls-3" transform="translate(827.54 303.77)"><tspan x="0" y="0">50</tspan></text>
  <text class="cls-3" transform="translate(827.54 363.03)"><tspan x="0" y="0">60</tspan></text>
  <text class="cls-3" transform="translate(827.54 422.3)"><tspan x="0" y="0">70</tspan></text>
  <text class="cls-3" transform="translate(827.54 481.56)"><tspan x="0" y="0">80</tspan></text>
  <text class="cls-3" transform="translate(827.54 540.83)"><tspan x="0" y="0">90</tspan></text>
  <line class="cls-2" x1="420.96" x2="420.96" y2="597.36"/>
  <line class="cls-2" x1="210.48" x2="210.48" y2="597.36"/>
  <line class="cls-2" x1="631.44" x2="631.44" y2="597.36"/>
  <line class="cls-2" y1="299.7" x2="841.92" y2="299.7"/>
  <line class="cls-2" y1="448.53" x2="841.92" y2="448.53"/>
  <line class="cls-2" y1="150.87" x2="841.92" y2="150.87"/>
</svg>