<svg xmlns="http://www.w3.org/2000/svg" xmlns:xlink="http://www.w3.org/1999/xlink" xmlns:inkscape="http://www.inkscape.org/namespaces/inkscape" version="1.1" width="841.92" height="595.32" viewBox="0 0 841.92 595.32">
<defs>
<clipPath id="clip_0">
<path transform="matrix(1,0,0,-1,0,595.32)" d="M.000012546 0H841.92V595.32H.000012546Z" clip-rule="evenodd"/>
</clipPath>
<clipPath id="clip_1">
<path transform="matrix(1,0,0,-1,0,595.32)" d="M72.96 430.3H771.7V474.34H72.96Z" clip-rule="evenodd"/>
</clipPath>
<clipPath id="clip_2">
<path transform="matrix(1,0,0,-1,0,595.32)" d="M72.96 430.3H771.7V474.34H72.96Z" clip-rule="evenodd"/>
</clipPath>
<clipPath id="clip_3">
<path transform="matrix(1,0,0,-1,0,595.32)" d="M72.96 430.3H771.7V474.34H72.96Z" clip-rule="evenodd"/>
</clipPath>
<clipPath id="clip_4">
<path transform="matrix(1,0,0,-1,0,595.32)" d="M72.96 430.3H771.7V474.34H72.96Z" clip-rule="evenodd"/>
</clipPath>
<clipPath id="clip_5">
<path transform="matrix(1,0,0,-1,0,595.32)" d="M72.96 430.3H771.7V474.34H72.96Z" clip-rule="evenodd"/>
</clipPath>
<clipPath id="clip_6">
<path transform="matrix(1,0,0,-1,0,595.32)" d="M72.96 430.3H771.7V474.34H72.96Z" clip-rule="evenodd"/>
</clipPath>
<clipPath id="clip_7">
<path transform="matrix(1,0,0,-1,0,595.32)" d="M72.96 430.3H771.7V474.34H72.96Z" clip-rule="evenodd"/>
</clipPath>
<clipPath id="clip_8">
<path transform="matrix(1,0,0,-1,0,595.32)" d="M72.96 430.3H771.7V474.34H72.96Z" clip-rule="evenodd"/>
</clipPath>
<clipPath id="clip_9">
<path transform="matrix(1,0,0,-1,0,595.32)" d="M72.96 430.3H771.7V474.34H72.96Z" clip-rule="evenodd"/>
</clipPath>
<clipPath id="clip_10">
<path transform="matrix(1,0,0,-1,0,595.32)" d="M72.96 430.3H771.7V474.34H72.96Z" clip-rule="evenodd"/>
</clipPath>
<clipPath id="clip_11">
<path transform="matrix(1,0,0,-1,0,595.32)" d="M72.96 430.3H771.7V474.34H72.96Z" clip-rule="evenodd"/>
</clipPath>
<clipPath id="clip_12">
<path transform="matrix(1,0,0,-1,0,595.32)" d="M72.96 285.07H106.944V419.37H72.96Z" clip-rule="evenodd"/>
</clipPath>
<clipPath id="clip_13">
<path transform="matrix(1,0,0,-1,0,595.32)" d="M72.96 285.07H106.944V419.37H72.96Z" clip-rule="evenodd"/>
</clipPath>
<clipPath id="clip_14">
<path transform="matrix(1,0,0,-1,0,595.32)" d="M72.96 285.07H106.944V419.37H72.96Z" clip-rule="evenodd"/>
</clipPath>
<clipPath id="clip_15">
<path transform="matrix(1,0,0,-1,0,595.32)" d="M72.96 285.07H106.944V419.37H72.96Z" clip-rule="evenodd"/>
</clipPath>
<clipPath id="clip_16">
<path transform="matrix(1,0,0,-1,0,595.32)" d="M108.02 390.43H312.52V419.374H108.02Z" clip-rule="evenodd"/>
</clipPath>
<clipPath id="clip_17">
<path transform="matrix(1,0,0,-1,0,595.32)" d="M108.02 390.43H312.52V419.374H108.02Z" clip-rule="evenodd"/>
</clipPath>
<clipPath id="clip_18">
<path transform="matrix(1,0,0,-1,0,595.32)" d="M108.02 390.43H312.52V419.374H108.02Z" clip-rule="evenodd"/>
</clipPath>
<clipPath id="clip_19">
<path transform="matrix(1,0,0,-1,0,595.32)" d="M313.61 285.07H383.44999V419.37H313.61Z" clip-rule="evenodd"/>
</clipPath>
<clipPath id="clip_20">
<path transform="matrix(1,0,0,-1,0,595.32)" d="M313.61 285.07H383.44999V419.37H313.61Z" clip-rule="evenodd"/>
</clipPath>
<clipPath id="clip_21">
<path transform="matrix(1,0,0,-1,0,595.32)" d="M313.61 285.07H383.44999V419.37H313.61Z" clip-rule="evenodd"/>
</clipPath>
<clipPath id="clip_22">
<path transform="matrix(1,0,0,-1,0,595.32)" d="M384.41 390.43H631.51V419.374H384.41Z" clip-rule="evenodd"/>
</clipPath>
<clipPath id="clip_23">
<path transform="matrix(1,0,0,-1,0,595.32)" d="M384.41 390.43H631.51V419.374H384.41Z" clip-rule="evenodd"/>
</clipPath>
<clipPath id="clip_24">
<path transform="matrix(1,0,0,-1,0,595.32)" d="M384.41 390.43H631.51V419.374H384.41Z" clip-rule="evenodd"/>
</clipPath>
<clipPath id="clip_25">
<path transform="matrix(1,0,0,-1,0,595.32)" d="M632.47 285.07H729.094V419.37H632.47Z" clip-rule="evenodd"/>
</clipPath>
<clipPath id="clip_26">
<path transform="matrix(1,0,0,-1,0,595.32)" d="M632.47 285.07H729.094V419.37H632.47Z" clip-rule="evenodd"/>
</clipPath>
<clipPath id="clip_27">
<path transform="matrix(1,0,0,-1,0,595.32)" d="M632.47 285.07H729.094V419.37H632.47Z" clip-rule="evenodd"/>
</clipPath>
<clipPath id="clip_28">
<path transform="matrix(1,0,0,-1,0,595.32)" d="M730.06 285.07H771.7V419.37H730.06Z" clip-rule="evenodd"/>
</clipPath>
<clipPath id="clip_29">
<path transform="matrix(1,0,0,-1,0,595.32)" d="M730.06 285.07H771.7V419.37H730.06Z" clip-rule="evenodd"/>
</clipPath>
<clipPath id="clip_30">
<path transform="matrix(1,0,0,-1,0,595.32)" d="M730.06 285.07H771.7V419.37H730.06Z" clip-rule="evenodd"/>
</clipPath>
<clipPath id="clip_31">
<path transform="matrix(1,0,0,-1,0,595.32)" d="M108.02 285.07H312.52V379.51H108.02Z" clip-rule="evenodd"/>
</clipPath>
<clipPath id="clip_32">
<path transform="matrix(1,0,0,-1,0,595.32)" d="M108.02 285.07H312.52V379.51H108.02Z" clip-rule="evenodd"/>
</clipPath>
<clipPath id="clip_33">
<path transform="matrix(1,0,0,-1,0,595.32)" d="M108.02 285.07H312.52V379.51H108.02Z" clip-rule="evenodd"/>
</clipPath>
<clipPath id="clip_34">
<path transform="matrix(1,0,0,-1,0,595.32)" d="M108.02 285.07H312.52V379.51H108.02Z" clip-rule="evenodd"/>
</clipPath>
<clipPath id="clip_35">
<path transform="matrix(1,0,0,-1,0,595.32)" d="M108.02 285.07H312.52V379.51H108.02Z" clip-rule="evenodd"/>
</clipPath>
<clipPath id="clip_36">
<path transform="matrix(1,0,0,-1,0,595.32)" d="M384.41 285.07H631.51V379.51H384.41Z" clip-rule="evenodd"/>
</clipPath>
<clipPath id="clip_37">
<path transform="matrix(1,0,0,-1,0,595.32)" d="M384.41 285.07H631.51V379.51H384.41Z" clip-rule="evenodd"/>
</clipPath>
<clipPath id="clip_38">
<path transform="matrix(1,0,0,-1,0,595.32)" d="M384.41 285.07H631.51V379.51H384.41Z" clip-rule="evenodd"/>
</clipPath>
<clipPath id="clip_39">
<path transform="matrix(1,0,0,-1,0,595.32)" d="M384.41 285.07H631.51V379.51H384.41Z" clip-rule="evenodd"/>
</clipPath>
<clipPath id="clip_40">
<path transform="matrix(1,0,0,-1,0,595.32)" d="M384.41 285.07H631.51V379.51H384.41Z" clip-rule="evenodd"/>
</clipPath>
<clipPath id="clip_41">
<path transform="matrix(1,0,0,-1,0,595.32)" d="M384.41 285.07H631.51V379.51H384.41Z" clip-rule="evenodd"/>
</clipPath>
<clipPath id="clip_42">
<path transform="matrix(1,0,0,-1,0,595.32)" d="M384.41 285.07H631.51V379.51H384.41Z" clip-rule="evenodd"/>
</clipPath>
<clipPath id="clip_43">
<path transform="matrix(1,0,0,-1,0,595.32)" d="M384.41 285.07H631.51V379.51H384.41Z" clip-rule="evenodd"/>
</clipPath>
<clipPath id="clip_44">
<path transform="matrix(1,0,0,-1,0,595.32)" d="M384.41 285.07H631.51V379.51H384.41Z" clip-rule="evenodd"/>
</clipPath>
<clipPath id="clip_45">
<path transform="matrix(1,0,0,-1,0,595.32)" d="M384.41 285.07H631.51V379.51H384.41Z" clip-rule="evenodd"/>
</clipPath>
<clipPath id="clip_46">
<path transform="matrix(1,0,0,-1,0,595.32)" d="M384.41 285.07H631.51V379.51H384.41Z" clip-rule="evenodd"/>
</clipPath>
<clipPath id="clip_47">
<path transform="matrix(1,0,0,-1,0,595.32)" d="M384.41 285.07H631.51V379.51H384.41Z" clip-rule="evenodd"/>
</clipPath>
<clipPath id="clip_48">
<path transform="matrix(1,0,0,-1,0,595.32)" d="M384.41 285.07H631.51V379.51H384.41Z" clip-rule="evenodd"/>
</clipPath>
<clipPath id="clip_49">
<path transform="matrix(1,0,0,-1,0,595.32)" d="M384.41 285.07H631.51V379.51H384.41Z" clip-rule="evenodd"/>
</clipPath>
<clipPath id="clip_50">
<path transform="matrix(1,0,0,-1,0,595.32)" d="M384.41 285.07H631.51V379.51H384.41Z" clip-rule="evenodd"/>
</clipPath>
<clipPath id="clip_51">
<path transform="matrix(1,0,0,-1,0,595.32)" d="M384.41 285.07H631.51V379.51H384.41Z" clip-rule="evenodd"/>
</clipPath>
<clipPath id="clip_52">
<path transform="matrix(1,0,0,-1,0,595.32)" d="M384.41 285.07H631.51V379.51H384.41Z" clip-rule="evenodd"/>
</clipPath>
<clipPath id="clip_53">
<path transform="matrix(1,0,0,-1,0,595.32)" d="M384.41 285.07H631.51V379.51H384.41Z" clip-rule="evenodd"/>
</clipPath>
<clipPath id="clip_54">
<path transform="matrix(1,0,0,-1,0,595.32)" d="M384.41 285.07H631.51V379.51H384.41Z" clip-rule="evenodd"/>
</clipPath>
<clipPath id="clip_55">
<path transform="matrix(1,0,0,-1,0,595.32)" d="M384.41 285.07H631.51V379.51H384.41Z" clip-rule="evenodd"/>
</clipPath>
<clipPath id="clip_56">
<path transform="matrix(1,0,0,-1,0,595.32)" d="M384.41 285.07H631.51V379.51H384.41Z" clip-rule="evenodd"/>
</clipPath>
<clipPath id="clip_57">
<path transform="matrix(1,0,0,-1,0,595.32)" d="M384.41 285.07H631.51V379.51H384.41Z" clip-rule="evenodd"/>
</clipPath>
<clipPath id="clip_58">
<path transform="matrix(1,0,0,-1,0,595.32)" d="M384.41 285.07H631.51V379.51H384.41Z" clip-rule="evenodd"/>
</clipPath>
<clipPath id="clip_59">
<path transform="matrix(1,0,0,-1,0,595.32)" d="M384.41 285.07H631.51V379.51H384.41Z" clip-rule="evenodd"/>
</clipPath>
<clipPath id="clip_60">
<path transform="matrix(1,0,0,-1,0,595.32)" d="M384.41 285.07H631.51V379.51H384.41Z" clip-rule="evenodd"/>
</clipPath>
<clipPath id="clip_61">
<path transform="matrix(1,0,0,-1,0,595.32)" d="M384.41 285.07H631.51V379.51H384.41Z" clip-rule="evenodd"/>
</clipPath>
<clipPath id="clip_62">
<path transform="matrix(1,0,0,-1,0,595.32)" d="M384.41 285.07H631.51V379.51H384.41Z" clip-rule="evenodd"/>
</clipPath>
<clipPath id="clip_63">
<path transform="matrix(1,0,0,-1,0,595.32)" d="M384.41 285.07H631.51V379.51H384.41Z" clip-rule="evenodd"/>
</clipPath>
<clipPath id="clip_64">
<path transform="matrix(1,0,0,-1,0,595.32)" d="M384.41 285.07H631.51V379.51H384.41Z" clip-rule="evenodd"/>
</clipPath>
<clipPath id="clip_65">
<path transform="matrix(1,0,0,-1,0,595.32)" d="M384.41 285.07H631.51V379.51H384.41Z" clip-rule="evenodd"/>
</clipPath>
<clipPath id="clip_66">
<path transform="matrix(1,0,0,-1,0,595.32)" d="M384.41 285.07H631.51V379.51H384.41Z" clip-rule="evenodd"/>
</clipPath>
<clipPath id="clip_67">
<path transform="matrix(1,0,0,-1,0,595.32)" d="M384.41 285.07H631.51V379.51H384.41Z" clip-rule="evenodd"/>
</clipPath>
<clipPath id="clip_68">
<path transform="matrix(1,0,0,-1,0,595.32)" d="M384.41 285.07H631.51V379.51H384.41Z" clip-rule="evenodd"/>
</clipPath>
<clipPath id="clip_69">
<path transform="matrix(1,0,0,-1,0,595.32)" d="M384.41 285.07H631.51V379.51H384.41Z" clip-rule="evenodd"/>
</clipPath>
<clipPath id="clip_70">
<path transform="matrix(1,0,0,-1,0,595.32)" d="M384.41 285.07H631.51V379.51H384.41Z" clip-rule="evenodd"/>
</clipPath>
<clipPath id="clip_71">
<path transform="matrix(1,0,0,-1,0,595.32)" d="M384.41 285.07H631.51V379.51H384.41Z" clip-rule="evenodd"/>
</clipPath>
<clipPath id="clip_72">
<path transform="matrix(1,0,0,-1,0,595.32)" d="M384.41 285.07H631.51V379.51H384.41Z" clip-rule="evenodd"/>
</clipPath>
<clipPath id="clip_73">
<path transform="matrix(1,0,0,-1,0,595.32)" d="M384.41 285.07H631.51V379.51H384.41Z" clip-rule="evenodd"/>
</clipPath>
<clipPath id="clip_74">
<path transform="matrix(1,0,0,-1,0,595.32)" d="M72.96 208.13H106.944V274.034H72.96Z" clip-rule="evenodd"/>
</clipPath>
<clipPath id="clip_75">
<path transform="matrix(1,0,0,-1,0,595.32)" d="M72.96 208.13H106.944V274.034H72.96Z" clip-rule="evenodd"/>
</clipPath>
<clipPath id="clip_76">
<path transform="matrix(1,0,0,-1,0,595.32)" d="M108.02 245.09H312.52V274.034H108.02Z" clip-rule="evenodd"/>
</clipPath>
<clipPath id="clip_77">
<path transform="matrix(1,0,0,-1,0,595.32)" d="M108.02 245.09H312.52V274.034H108.02Z" clip-rule="evenodd"/>
</clipPath>
<clipPath id="clip_78">
<path transform="matrix(1,0,0,-1,0,595.32)" d="M313.61 245.09H383.44999V274.034H313.61Z" clip-rule="evenodd"/>
</clipPath>
<clipPath id="clip_79">
<path transform="matrix(1,0,0,-1,0,595.32)" d="M313.61 245.09H383.44999V274.034H313.61Z" clip-rule="evenodd"/>
</clipPath>
<clipPath id="clip_80">
<path transform="matrix(1,0,0,-1,0,595.32)" d="M384.41 245.09H631.51V274.034H384.41Z" clip-rule="evenodd"/>
</clipPath>
<clipPath id="clip_81">
<path transform="matrix(1,0,0,-1,0,595.32)" d="M384.41 245.09H631.51V274.034H384.41Z" clip-rule="evenodd"/>
</clipPath>
<clipPath id="clip_82">
<path transform="matrix(1,0,0,-1,0,595.32)" d="M632.47 245.09H729.094V274.034H632.47Z" clip-rule="evenodd"/>
</clipPath>
<clipPath id="clip_83">
<path transform="matrix(1,0,0,-1,0,595.32)" d="M632.47 245.09H729.094V274.034H632.47Z" clip-rule="evenodd"/>
</clipPath>
<clipPath id="clip_84">
<path transform="matrix(1,0,0,-1,0,595.32)" d="M730.06 245.09H771.7V274.034H730.06Z" clip-rule="evenodd"/>
</clipPath>
<clipPath id="clip_85">
<path transform="matrix(1,0,0,-1,0,595.32)" d="M730.06 245.09H771.7V274.034H730.06Z" clip-rule="evenodd"/>
</clipPath>
<clipPath id="clip_86">
<path transform="matrix(1,0,0,-1,0,595.32)" d="M108.02 208.13H127.579998V234.17002H108.02Z" clip-rule="evenodd"/>
</clipPath>
<clipPath id="clip_87">
<path transform="matrix(1,0,0,-1,0,595.32)" d="M108.02 208.13H127.579998V234.17002H108.02Z" clip-rule="evenodd"/>
</clipPath>
<clipPath id="clip_88">
<path transform="matrix(1,0,0,-1,0,595.32)" d="M128.54 208.13H148.09999V234.17002H128.54Z" clip-rule="evenodd"/>
</clipPath>
<clipPath id="clip_89">
<path transform="matrix(1,0,0,-1,0,595.32)" d="M128.54 208.13H148.09999V234.17002H128.54Z" clip-rule="evenodd"/>
</clipPath>
<clipPath id="clip_90">
<path transform="matrix(1,0,0,-1,0,595.32)" d="M149.06 208.13H168.62V234.17002H149.06Z" clip-rule="evenodd"/>
</clipPath>
<clipPath id="clip_91">
<path transform="matrix(1,0,0,-1,0,595.32)" d="M149.06 208.13H168.62V234.17002H149.06Z" clip-rule="evenodd"/>
</clipPath>
<clipPath id="clip_92">
<path transform="matrix(1,0,0,-1,0,595.32)" d="M169.58 208.13H189.14V234.17002H169.58Z" clip-rule="evenodd"/>
</clipPath>
<clipPath id="clip_93">
<path transform="matrix(1,0,0,-1,0,595.32)" d="M169.58 208.13H189.14V234.17002H169.58Z" clip-rule="evenodd"/>
</clipPath>
<clipPath id="clip_94">
<path transform="matrix(1,0,0,-1,0,595.32)" d="M190.22 208.13H209.66V234.17002H190.22Z" clip-rule="evenodd"/>
</clipPath>
<clipPath id="clip_95">
<path transform="matrix(1,0,0,-1,0,595.32)" d="M190.22 208.13H209.66V234.17002H190.22Z" clip-rule="evenodd"/>
</clipPath>
<clipPath id="clip_96">
<path transform="matrix(1,0,0,-1,0,595.32)" d="M210.74 208.13H230.3V234.17002H210.74Z" clip-rule="evenodd"/>
</clipPath>
<clipPath id="clip_97">
<path transform="matrix(1,0,0,-1,0,595.32)" d="M210.74 208.13H230.3V234.17002H210.74Z" clip-rule="evenodd"/>
</clipPath>
<clipPath id="clip_98">
<path transform="matrix(1,0,0,-1,0,595.32)" d="M231.26 208.13H250.81999V234.17002H231.26Z" clip-rule="evenodd"/>
</clipPath>
<clipPath id="clip_99">
<path transform="matrix(1,0,0,-1,0,595.32)" d="M231.26 208.13H250.81999V234.17002H231.26Z" clip-rule="evenodd"/>
</clipPath>
<clipPath id="clip_100">
<path transform="matrix(1,0,0,-1,0,595.32)" d="M251.78 208.13H271.34V234.17002H251.78Z" clip-rule="evenodd"/>
</clipPath>
<clipPath id="clip_101">
<path transform="matrix(1,0,0,-1,0,595.32)" d="M251.78 208.13H271.34V234.17002H251.78Z" clip-rule="evenodd"/>
</clipPath>
<clipPath id="clip_102">
<path transform="matrix(1,0,0,-1,0,595.32)" d="M272.42 208.13H292.00404V234.17002H272.42Z" clip-rule="evenodd"/>
</clipPath>
<clipPath id="clip_103">
<path transform="matrix(1,0,0,-1,0,595.32)" d="M272.42 208.13H292.00404V234.17002H272.42Z" clip-rule="evenodd"/>
</clipPath>
<clipPath id="clip_104">
<path transform="matrix(1,0,0,-1,0,595.32)" d="M292.97 208.13H312.53V234.17002H292.97Z" clip-rule="evenodd"/>
</clipPath>
<clipPath id="clip_105">
<path transform="matrix(1,0,0,-1,0,595.32)" d="M292.97 208.13H312.53V234.17002H292.97Z" clip-rule="evenodd"/>
</clipPath>
<clipPath id="clip_106">
<path transform="matrix(1,0,0,-1,0,595.32)" d="M313.61 208.13H383.44999V234.17002H313.61Z" clip-rule="evenodd"/>
</clipPath>
<clipPath id="clip_107">
<path transform="matrix(1,0,0,-1,0,595.32)" d="M313.61 208.13H383.44999V234.17002H313.61Z" clip-rule="evenodd"/>
</clipPath>
<clipPath id="clip_108">
<path transform="matrix(1,0,0,-1,0,595.32)" d="M384.41 208.13H631.51V234.17002H384.41Z" clip-rule="evenodd"/>
</clipPath>
<clipPath id="clip_109">
<path transform="matrix(1,0,0,-1,0,595.32)" d="M384.41 208.13H631.51V234.17002H384.41Z" clip-rule="evenodd"/>
</clipPath>
<clipPath id="clip_110">
<path transform="matrix(1,0,0,-1,0,595.32)" d="M632.47 208.13H729.094V234.17002H632.47Z" clip-rule="evenodd"/>
</clipPath>
<clipPath id="clip_111">
<path transform="matrix(1,0,0,-1,0,595.32)" d="M632.47 208.13H729.094V234.17002H632.47Z" clip-rule="evenodd"/>
</clipPath>
<clipPath id="clip_112">
<path transform="matrix(1,0,0,-1,0,595.32)" d="M730.06 208.13H771.7V234.17002H730.06Z" clip-rule="evenodd"/>
</clipPath>
<clipPath id="clip_113">
<path transform="matrix(1,0,0,-1,0,595.32)" d="M730.06 208.13H771.7V234.17002H730.06Z" clip-rule="evenodd"/>
</clipPath>
<clipPath id="clip_114">
<path transform="matrix(1,0,0,-1,0,595.32)" d="M.000012546 0H841.92V595.32H.000012546Z" clip-rule="evenodd"/>
</clipPath>
<clipPath id="clip_115">
<path transform="matrix(1,0,0,-1,0,595.32)" d="M.000012546 0H841.92V595.32H.000012546Z" clip-rule="evenodd"/>
</clipPath>
<clipPath id="clip_116">
<path transform="matrix(1,0,0,-1,0,595.32)" d="M.000012546 0H841.92V595.32H.000012546Z" clip-rule="evenodd"/>
</clipPath>
<clipPath id="clip_117">
<path transform="matrix(1,0,0,-1,0,595.32)" d="M.000012546 0H841.92V595.32H.000012546Z" clip-rule="evenodd"/>
</clipPath>
<clipPath id="clip_118">
<path transform="matrix(1,0,0,-1,0,595.32)" d="M.000012546 0H841.92V595.32H.000012546Z" clip-rule="evenodd"/>
</clipPath>
<clipPath id="clip_119">
<path transform="matrix(1,0,0,-1,0,595.32)" d="M.000012546 0H841.92V595.32H.000012546Z" clip-rule="evenodd"/>
</clipPath>
<clipPath id="clip_120">
<path transform="matrix(1,0,0,-1,0,595.32)" d="M.000012546 0H841.92V595.32H.000012546Z" clip-rule="evenodd"/>
</clipPath>
<clipPath id="clip_121">
<path transform="matrix(1,0,0,-1,0,595.32)" d="M.000012546 0H841.92V595.32H.000012546Z" clip-rule="evenodd"/>
</clipPath>
<clipPath id="clip_122">
<path transform="matrix(1,0,0,-1,0,595.32)" d="M.000012546 0H841.92V595.32H.000012546Z" clip-rule="evenodd"/>
</clipPath>
<clipPath id="clip_123">
<path transform="matrix(1,0,0,-1,0,595.32)" d="M.000012546 0H841.92V595.32H.000012546Z" clip-rule="evenodd"/>
</clipPath>
<clipPath id="clip_124">
<path transform="matrix(1,0,0,-1,0,595.32)" d="M.000012546 0H841.92V595.32H.000012546Z" clip-rule="evenodd"/>
</clipPath>
<clipPath id="clip_125">
<path transform="matrix(1,0,0,-1,0,595.32)" d="M.000012546 0H841.92V595.32H.000012546Z" clip-rule="evenodd"/>
</clipPath>
<clipPath id="clip_126">
<path transform="matrix(1,0,0,-1,0,595.32)" d="M.000012546 0H841.92V595.32H.000012546Z" clip-rule="evenodd"/>
</clipPath>
<clipPath id="clip_127">
<path transform="matrix(1,0,0,-1,0,595.32)" d="M.000012546 0H841.92V595.32H.000012546Z" clip-rule="evenodd"/>
</clipPath>
<clipPath id="clip_128">
<path transform="matrix(1,0,0,-1,0,595.32)" d="M.000012546 0H841.92V595.32H.000012546Z" clip-rule="evenodd"/>
</clipPath>
<clipPath id="clip_129">
<path transform="matrix(1,0,0,-1,0,595.32)" d="M.000012546 0H841.92V595.32H.000012546Z" clip-rule="evenodd"/>
</clipPath>
<clipPath id="clip_130">
<path transform="matrix(1,0,0,-1,0,595.32)" d="M.000012546 0H841.92V595.32H.000012546Z" clip-rule="evenodd"/>
</clipPath>
<clipPath id="clip_131">
<path transform="matrix(1,0,0,-1,0,595.32)" d="M.000012546 0H841.92V595.32H.000012546Z" clip-rule="evenodd"/>
</clipPath>
<clipPath id="clip_132">
<path transform="matrix(1,0,0,-1,0,595.32)" d="M.000012546 0H841.92V595.32H.000012546Z" clip-rule="evenodd"/>
</clipPath>
<clipPath id="clip_133">
<path transform="matrix(1,0,0,-1,0,595.32)" d="M.000012546 0H841.92V595.32H.000012546Z" clip-rule="evenodd"/>
</clipPath>
<clipPath id="clip_134">
<path transform="matrix(1,0,0,-1,0,595.32)" d="M.000012546 0H841.92V595.32H.000012546Z" clip-rule="evenodd"/>
</clipPath>
<clipPath id="clip_135">
<path transform="matrix(1,0,0,-1,0,595.32)" d="M.000012546 0H841.92V595.32H.000012546Z" clip-rule="evenodd"/>
</clipPath>
<clipPath id="clip_136">
<path transform="matrix(1,0,0,-1,0,595.32)" d="M.000012546 0H841.92V595.32H.000012546Z" clip-rule="evenodd"/>
</clipPath>
</defs>
<g>
<g clip-path="url(#clip_0)">
<text xml:space="preserve" transform="matrix(1 0 -0 1 0 595.32)" font-size="12" font-family="Aptos"><tspan y="-494.02" x="72"> </tspan></text>
</g>
<g clip-path="url(#clip_1)">
<g clip-path="url(#clip_2)">
<text xml:space="preserve" transform="matrix(1 0 -0 1 0 595.32)" font-size="18" font-family="PMingLiU"><tspan y="-450.82" x="210.74 228.74 246.74 264.74">&#x65b0;&#x5317;&#x5e02;&#x7b2c;</tspan></text>
</g>
<g clip-path="url(#clip_3)">
<text xml:space="preserve" transform="matrix(1 0 -0 1 0 595.32)" font-size="18" font-family="PMingLiU"><tspan y="-450.82" x="282.74">&#x516b;</tspan></text>
</g>
<g clip-path="url(#clip_4)">
<text xml:space="preserve" transform="matrix(1 0 -0 1 0 595.32)" font-size="18" font-family="PMingLiU"><tspan y="-450.82" x="300.77 318.77">&#x9078;&#x5340;</tspan></text>
</g>
<g clip-path="url(#clip_5)">
<text xml:space="preserve" transform="matrix(1 0 -0 1 0 595.32)" font-size="18" font-family="Aptos"><tspan y="-450.82" x="336.77"> </tspan></text>
</g>
<g clip-path="url(#clip_6)">
<text xml:space="preserve" transform="matrix(1 0 -0 1 0 595.32)" font-size="18" font-family="PMingLiU"><tspan y="-450.82" x="345.77 363.77 381.77 399.77">&#x7acb;&#x6cd5;&#x59d4;&#x54e1;</tspan></text>
</g>
<g clip-path="url(#clip_7)">
<text xml:space="preserve" transform="matrix(1 0 -0 1 0 595.32)" font-size="18" font-family="Aptos"><tspan y="-450.82" x="417.77"> </tspan></text>
</g>
<g clip-path="url(#clip_8)">
<text xml:space="preserve" transform="matrix(1 0 -0 1 0 595.32)" font-size="18" font-family="PMingLiU"><tspan y="-450.82" x="426.77 444.77 462.77">&#x5f35;&#x667a;&#x502b;</tspan></text>
</g>
<g clip-path="url(#clip_9)">
<text xml:space="preserve" transform="matrix(1 0 -0 1 0 595.32)" font-size="18" font-family="Aptos"><tspan y="-450.82" x="480.79"> </tspan></text>
</g>
<g clip-path="url(#clip_10)">
<text xml:space="preserve" transform="matrix(1 0 -0 1 0 595.32)" font-size="18" font-family="PMingLiU"><tspan y="-450.82" x="489.79 507.79 525.79006 543.79006 561.79006 579.79006 597.79006 615.79006">&#x7f77;&#x514d;&#x6848;&#x63d0;&#x8b70;&#x4eba;&#x540d;&#x518a;</tspan></text>
</g>
<g clip-path="url(#clip_11)">
<text xml:space="preserve" transform="matrix(1 0 -0 1 0 595.32)" font-size="12" font-family="Aptos"><tspan y="-450.82" x="633.79"> </tspan></text>
</g>
</g>
<path transform="matrix(1,0,0,-1,0,595.32)" d="M72 474.34H72.96V480.34H72Z" fill-rule="evenodd"/>
<path transform="matrix(1,0,0,-1,0,595.32)" d="M72 479.38H72.96V480.34H72Z" fill-rule="evenodd"/>
<path transform="matrix(1,0,0,-1,0,595.32)" d="M72.96 479.38H771.7V480.34H72.96Z" fill-rule="evenodd"/>
<path transform="matrix(1,0,0,-1,0,595.32)" d="M771.7 474.34H772.66006V480.34H771.7Z" fill-rule="evenodd"/>
<path transform="matrix(1,0,0,-1,0,595.32)" d="M771.7 479.38H772.66006V480.34H771.7Z" fill-rule="evenodd"/>
<path transform="matrix(1,0,0,-1,0,595.32)" d="M72 425.38H72.96V474.34H72Z" fill-rule="evenodd"/>
<path transform="matrix(1,0,0,-1,0,595.32)" d="M771.7 425.38H772.66006V474.34H771.7Z" fill-rule="evenodd"/>
<g clip-path="url(#clip_12)">
<g clip-path="url(#clip_13)">
<text xml:space="preserve" transform="matrix(1 0 -0 1 0 595.32)" font-size="12" font-family="PMingLiU"><tspan y="-353.83" x="77.52 89.52">&#x7de8;&#x865f;</tspan></text>
</g>
<g clip-path="url(#clip_14)">
<text xml:space="preserve" transform="matrix(1 0 -0 1 0 595.32)" font-size="12" font-family="Aptos"><tspan y="-353.83" x="101.54"> </tspan></text>
</g>
<g clip-path="url(#clip_15)">
<text xml:space="preserve" transform="matrix(1 0 -0 1 0 595.32)" font-size="12" font-family="Aptos"><tspan y="-339.07" x="77.52"> </tspan></text>
</g>
</g>
<g clip-path="url(#clip_16)">
<g clip-path="url(#clip_17)">
<text xml:space="preserve" transform="matrix(1 0 -0 1 0 595.32)" font-size="12" font-family="PMingLiU"><tspan y="-405.34" x="198.26 210.26">&#x59d3;&#x540d;</tspan></text>
</g>
<g clip-path="url(#clip_18)">
<text xml:space="preserve" transform="matrix(1 0 -0 1 0 595.32)" font-size="12" font-family="Aptos"><tspan y="-405.34" x="222.26"> </tspan></text>
</g>
</g>
<g clip-path="url(#clip_19)">
<g clip-path="url(#clip_20)">
<text xml:space="preserve" transform="matrix(1 0 -0 1 0 595.32)" font-size="12" font-family="PMingLiU"><tspan y="-352.51" x="318.41 330.41 342.41 354.41 366.41">&#x51fa;&#x751f;&#x5e74;&#x6708;&#x65e5;</tspan></text>
</g>
<g clip-path="url(#clip_21)">
<text xml:space="preserve" transform="matrix(1 0 -0 1 0 595.32)" font-size="12" font-family="Aptos"><tspan y="-352.51" x="378.41"> </tspan></text>
</g>
</g>
<g clip-path="url(#clip_22)">
<g clip-path="url(#clip_23)">
<text xml:space="preserve" transform="matrix(1 0 -0 1 0 595.32)" font-size="12" font-family="PMingLiU"><tspan y="-405.34" x="388.85 464.21003 539.57 614.93">&#x6236;&#x7c4d;&#x5730;&#x5740;</tspan></text>
</g>
<g clip-path="url(#clip_24)">
<text xml:space="preserve" transform="matrix(1 0 -0 1 0 595.32)" font-size="12" font-family="Aptos"><tspan y="-405.34" x="626.95"> </tspan></text>
</g>
</g>
<g clip-path="url(#clip_25)">
<g clip-path="url(#clip_26)">
<text xml:space="preserve" transform="matrix(1 0 -0 1 0 595.32)" font-size="12" font-family="PMingLiU"><tspan y="-352.51" x="650.83 662.83 674.83 686.83 698.83">&#x7c3d;&#x540d;&#x6216;&#x84cb;&#x7ae0;</tspan></text>
</g>
<g clip-path="url(#clip_27)">
<text xml:space="preserve" transform="matrix(1 0 -0 1 0 595.32)" font-size="12" font-family="Aptos"><tspan y="-352.51" x="710.86"> </tspan></text>
</g>
</g>
<g clip-path="url(#clip_28)">
<g clip-path="url(#clip_29)">
<text xml:space="preserve" transform="matrix(1 0 -0 1 0 595.32)" font-size="12" font-family="PMingLiU"><tspan y="-352.51" x="738.82 750.82">&#x5099;&#x8a3b;</tspan></text>
</g>
<g clip-path="url(#clip_30)">
<text xml:space="preserve" transform="matrix(1 0 -0 1 0 595.32)" font-size="12" font-family="Aptos"><tspan y="-352.51" x="762.82"> </tspan></text>
</g>
</g>
<path transform="matrix(1,0,0,-1,0,595.32)" d="M72 419.38H72.96V425.38H72Z" fill-rule="evenodd"/>
<path transform="matrix(1,0,0,-1,0,595.32)" d="M72.96 424.42H106.944V425.38005H72.96Z" fill-rule="evenodd"/>
<path transform="matrix(1,0,0,-1,0,595.32)" d="M106.94 419.38H107.9V424.42H106.94Z" fill-rule="evenodd"/>
<path transform="matrix(1,0,0,-1,0,595.32)" d="M106.94 424.42H107.9V425.38005H106.94Z" fill-rule="evenodd"/>
<path transform="matrix(1,0,0,-1,0,595.32)" d="M107.9 424.42H312.52V425.38005H107.9Z" fill-rule="evenodd"/>
<path transform="matrix(1,0,0,-1,0,595.32)" d="M312.53 419.38H313.49V424.42H312.53Z" fill-rule="evenodd"/>
<path transform="matrix(1,0,0,-1,0,595.32)" d="M312.53 424.42H313.49V425.38005H312.53Z" fill-rule="evenodd"/>
<path transform="matrix(1,0,0,-1,0,595.32)" d="M313.49 424.42H383.44999V425.38005H313.49Z" fill-rule="evenodd"/>
<path transform="matrix(1,0,0,-1,0,595.32)" d="M383.45 419.38H384.41V424.42H383.45Z" fill-rule="evenodd"/>
<path transform="matrix(1,0,0,-1,0,595.32)" d="M383.45 424.42H384.41V425.38005H383.45Z" fill-rule="evenodd"/>
<path transform="matrix(1,0,0,-1,0,595.32)" d="M384.41 424.42H631.51V425.38005H384.41Z" fill-rule="evenodd"/>
<path transform="matrix(1,0,0,-1,0,595.32)" d="M631.51 419.38H632.47V424.42H631.51Z" fill-rule="evenodd"/>
<path transform="matrix(1,0,0,-1,0,595.32)" d="M631.51 424.42H632.47V425.38005H631.51Z" fill-rule="evenodd"/>
<path transform="matrix(1,0,0,-1,0,595.32)" d="M632.47 424.42H729.094V425.38005H632.47Z" fill-rule="evenodd"/>
<path transform="matrix(1,0,0,-1,0,595.32)" d="M729.1 419.38H730.06V424.42H729.1Z" fill-rule="evenodd"/>
<path transform="matrix(1,0,0,-1,0,595.32)" d="M729.1 424.42H730.06V425.38005H729.1Z" fill-rule="evenodd"/>
<path transform="matrix(1,0,0,-1,0,595.32)" d="M730.06 424.42H771.7V425.38005H730.06Z" fill-rule="evenodd"/>
<path transform="matrix(1,0,0,-1,0,595.32)" d="M771.7 419.38H772.66006V425.38H771.7Z" fill-rule="evenodd"/>
<path transform="matrix(1,0,0,-1,0,595.32)" d="M72 385.51H72.96V419.37403H72Z" fill-rule="evenodd"/>
<path transform="matrix(1,0,0,-1,0,595.32)" d="M106.94 385.51H107.9V419.37403H106.94Z" fill-rule="evenodd"/>
<path transform="matrix(1,0,0,-1,0,595.32)" d="M312.53 385.51H313.49V419.37403H312.53Z" fill-rule="evenodd"/>
<path transform="matrix(1,0,0,-1,0,595.32)" d="M383.45 385.51H384.41V419.37403H383.45Z" fill-rule="evenodd"/>
<path transform="matrix(1,0,0,-1,0,595.32)" d="M631.51 385.51H632.47V419.37403H631.51Z" fill-rule="evenodd"/>
<path transform="matrix(1,0,0,-1,0,595.32)" d="M729.1 385.51H730.06V419.37403H729.1Z" fill-rule="evenodd"/>
<path transform="matrix(1,0,0,-1,0,595.32)" d="M771.7 385.51H772.66006V419.37403H771.7Z" fill-rule="evenodd"/>
<g clip-path="url(#clip_31)">
<g clip-path="url(#clip_32)">
<text xml:space="preserve" transform="matrix(1 0 -0 1 0 595.32)" font-size="12" font-family="PMingLiU"><tspan y="-345.67" x="112.46 158.288 204.236 250.064 295.892">&#x570b;&#x6c11;&#x8eab;&#x5206;&#x8b49;</tspan></text>
</g>
<g clip-path="url(#clip_33)">
<text xml:space="preserve" transform="matrix(1 0 -0 1 0 595.32)" font-size="12" font-family="Aptos"><tspan y="-345.67" x="308.09"> </tspan></text>
</g>
<g clip-path="url(#clip_34)">
<text xml:space="preserve" transform="matrix(1 0 -0 1 0 595.32)" font-size="12" font-family="PMingLiU"><tspan y="-319.63" x="112.46 173.66 234.86 296.06">&#x7d71;&#x4e00;&#x7de8;&#x865f;</tspan></text>
</g>
<g clip-path="url(#clip_35)">
<text xml:space="preserve" transform="matrix(1 0 -0 1 0 595.32)" font-size="12" font-family="Aptos"><tspan y="-319.63" x="308.09"> </tspan></text>
</g>
</g>
<g clip-path="url(#clip_36)">
<g clip-path="url(#clip_37)">
<text xml:space="preserve" transform="matrix(1 0 -0 1 0 595.32)" font-size="12" font-family="PMingLiU"><tspan y="-368.11" x="388.85 400.85 412.85">   </tspan></text>
</g>
<g clip-path="url(#clip_38)">
<text xml:space="preserve" transform="matrix(1 0 -0 1 0 595.32)" font-size="12" font-family="PMingLiU"><tspan y="-368.11" x="424.85 436.85 448.85 460.85">&#x7701;&#xff08;&#x5e02;&#xff09;</tspan></text>
</g>
<g clip-path="url(#clip_39)">
<text xml:space="preserve" transform="matrix(1 0 -0 1 0 595.32)" font-size="12" font-family="PMingLiU"><tspan y="-368.11" x="472.87"> </tspan></text>
</g>
<g clip-path="url(#clip_40)">
<text xml:space="preserve" transform="matrix(1 0 -0 1 0 595.32)" font-size="12" font-family="PMingLiU"><tspan y="-368.11" x="484.87 496.87 508.87">   </tspan></text>
</g>
<g clip-path="url(#clip_41)">
<text xml:space="preserve" transform="matrix(1 0 -0 1 0 595.32)" font-size="12" font-family="PMingLiU"><tspan y="-368.11" x="520.87"> </tspan></text>
</g>
<g clip-path="url(#clip_42)">
<text xml:space="preserve" transform="matrix(1 0 -0 1 0 595.32)" font-size="12" font-family="PMingLiU"><tspan y="-368.11" x="532.87 544.87">  </tspan></text>
</g>
<g clip-path="url(#clip_43)">
<text xml:space="preserve" transform="matrix(1 0 -0 1 0 595.32)" font-size="12" font-family="PMingLiU"><tspan y="-368.11" x="556.87 568.87 580.87 592.87">&#x7e23;&#xff08;&#x5e02;&#xff09;</tspan></text>
</g>
<g clip-path="url(#clip_44)">
<text xml:space="preserve" transform="matrix(1 0 -0 1 0 595.32)" font-size="12" font-family="Aptos"><tspan y="-368.11" x="604.87"> </tspan></text>
</g>
<g clip-path="url(#clip_45)">
<text xml:space="preserve" transform="matrix(1 0 -0 1 0 595.32)" font-size="12" font-family="PMingLiU"><tspan y="-344.47" x="388.85 400.85">  </tspan></text>
</g>
<g clip-path="url(#clip_46)">
<text xml:space="preserve" transform="matrix(1 0 -0 1 0 595.32)" font-size="12" font-family="PMingLiU"><tspan y="-344.47" x="412.85"> </tspan></text>
</g>
<g clip-path="url(#clip_47)">
<text xml:space="preserve" transform="matrix(1 0 -0 1 0 595.32)" font-size="12" font-family="PMingLiU"><tspan y="-344.47" x="424.85 436.85 448.85 460.85 472.85 484.85 496.85 508.85">&#x9109;&#xff08;&#x93ae;&#x3001;&#x5e02;&#x3001;&#x5340;&#xff09;</tspan></text>
</g>
<g clip-path="url(#clip_48)">
<text xml:space="preserve" transform="matrix(1 0 -0 1 0 595.32)" font-size="12" font-family="PMingLiU"><tspan y="-344.47" x="520.87"> </tspan></text>
</g>
<g clip-path="url(#clip_49)">
<text xml:space="preserve" transform="matrix(1 0 -0 1 0 595.32)" font-size="12" font-family="PMingLiU"><tspan y="-344.47" x="532.87 544.87">  </tspan></text>
</g>
<g clip-path="url(#clip_50)">
<text xml:space="preserve" transform="matrix(1 0 -0 1 0 595.32)" font-size="12" font-family="PMingLiU"><tspan y="-344.47" x="556.87 568.87 580.87 592.87">&#x6751;&#xff08;&#x91cc;&#xff09;</tspan></text>
</g>
<g clip-path="url(#clip_51)">
<text xml:space="preserve" transform="matrix(1 0 -0 1 0 595.32)" font-size="12" font-family="Aptos"><tspan y="-344.47" x="604.87"> </tspan></text>
</g>
<g clip-path="url(#clip_52)">
<text xml:space="preserve" transform="matrix(1 0 -0 1 0 595.32)" font-size="12" font-family="PMingLiU"><tspan y="-320.83" x="388.85"> </tspan></text>
</g>
<g clip-path="url(#clip_53)">
<text xml:space="preserve" transform="matrix(1 0 -0 1 0 595.32)" font-size="12" font-family="PMingLiU"><tspan y="-320.83" x="400.85 412.85">  </tspan></text>
</g>
<g clip-path="url(#clip_54)">
<text xml:space="preserve" transform="matrix(1 0 -0 1 0 595.32)" font-size="12" font-family="PMingLiU"><tspan y="-320.83" x="424.85">&#x9130;</tspan></text>
</g>
<g clip-path="url(#clip_55)">
<text xml:space="preserve" transform="matrix(1 0 -0 1 0 595.32)" font-size="12" font-family="PMingLiU"><tspan y="-320.83" x="436.85 448.85 460.85 472.85">    </tspan></text>
</g>
<g clip-path="url(#clip_56)">
<text xml:space="preserve" transform="matrix(1 0 -0 1 0 595.32)" font-size="12" font-family="PMingLiU"><tspan y="-320.83" x="484.87"> </tspan></text>
</g>
<g clip-path="url(#clip_57)">
<text xml:space="preserve" transform="matrix(1 0 -0 1 0 595.32)" font-size="12" font-family="PMingLiU"><tspan y="-320.83" x="496.87 508.87 520.87 532.87">&#x8def;&#xff08;&#x8857;&#xff09;</tspan></text>
</g>
<g clip-path="url(#clip_58)">
<text xml:space="preserve" transform="matrix(1 0 -0 1 0 595.32)" font-size="12" font-family="PMingLiU"><tspan y="-320.83" x="544.87 556.87">  </tspan></text>
</g>
<g clip-path="url(#clip_59)">
<text xml:space="preserve" transform="matrix(1 0 -0 1 0 595.32)" font-size="12" font-family="PMingLiU"><tspan y="-320.83" x="568.87">&#x6bb5;</tspan></text>
</g>
<g clip-path="url(#clip_60)">
<text xml:space="preserve" transform="matrix(1 0 -0 1 0 595.32)" font-size="12" font-family="PMingLiU"><tspan y="-320.83" x="580.87"> </tspan></text>
</g>
<g clip-path="url(#clip_61)">
<text xml:space="preserve" transform="matrix(1 0 -0 1 0 595.32)" font-size="12" font-family="PMingLiU"><tspan y="-320.83" x="592.87"> </tspan></text>
</g>
<g clip-path="url(#clip_62)">
<text xml:space="preserve" transform="matrix(1 0 -0 1 0 595.32)" font-size="12" font-family="PMingLiU"><tspan y="-320.83" x="604.87">&#x5df7;</tspan></text>
</g>
<g clip-path="url(#clip_63)">
<text xml:space="preserve" transform="matrix(1 0 -0 1 0 595.32)" font-size="12" font-family="Aptos"><tspan y="-320.83" x="616.87"> </tspan></text>
</g>
<g clip-path="url(#clip_64)">
<text xml:space="preserve" transform="matrix(1 0 -0 1 0 595.32)" font-size="12" font-family="PMingLiU"><tspan y="-297.19" x="388.85"> </tspan></text>
</g>
<g clip-path="url(#clip_65)">
<text xml:space="preserve" transform="matrix(1 0 -0 1 0 595.32)" font-size="12" font-family="PMingLiU"><tspan y="-297.19" x="400.85 412.85">  </tspan></text>
</g>
<g clip-path="url(#clip_66)">
<text xml:space="preserve" transform="matrix(1 0 -0 1 0 595.32)" font-size="12" font-family="PMingLiU"><tspan y="-297.19" x="424.85">&#x5f04;</tspan></text>
</g>
<g clip-path="url(#clip_67)">
<text xml:space="preserve" transform="matrix(1 0 -0 1 0 595.32)" font-size="12" font-family="PMingLiU"><tspan y="-297.19" x="436.85 448.85">  </tspan></text>
</g>
<g clip-path="url(#clip_68)">
<text xml:space="preserve" transform="matrix(1 0 -0 1 0 595.32)" font-size="12" font-family="PMingLiU"><tspan y="-297.19" x="460.85">&#x865f;</tspan></text>
</g>
<g clip-path="url(#clip_69)">
<text xml:space="preserve" transform="matrix(1 0 -0 1 0 595.32)" font-size="12" font-family="PMingLiU"><tspan y="-297.19" x="472.87 484.87">  </tspan></text>
</g>
<g clip-path="url(#clip_70)">
<text xml:space="preserve" transform="matrix(1 0 -0 1 0 595.32)" font-size="12" font-family="PMingLiU"><tspan y="-297.19" x="496.87 508.87">&#x6a13;&#x4e4b;</tspan></text>
</g>
<g clip-path="url(#clip_71)">
<text xml:space="preserve" transform="matrix(1 0 -0 1 0 595.32)" font-size="12" font-family="PMingLiU"><tspan y="-297.19" x="520.87 532.87">  </tspan></text>
</g>
<g clip-path="url(#clip_72)">
<text xml:space="preserve" transform="matrix(1 0 -0 1 0 595.32)" font-size="12" font-family="Aptos"><tspan y="-297.19" x="544.87"> </tspan></text>
</g>
<g clip-path="url(#clip_73)">
<text xml:space="preserve" transform="matrix(1 0 -0 1 0 595.32)" font-size="12" font-family="Aptos"><tspan y="-285.07" x="388.85"> </tspan></text>
</g>
</g>
<path transform="matrix(1,0,0,-1,0,595.32)" d="M72 379.51H72.96V385.51H72Z" fill-rule="evenodd"/>
<path transform="matrix(1,0,0,-1,0,595.32)" d="M106.94 379.51H107.9V385.51H106.94Z" fill-rule="evenodd"/>
<path transform="matrix(1,0,0,-1,0,595.32)" d="M107.9 384.55H312.52V385.51H107.9Z" fill-rule="evenodd"/>
<path transform="matrix(1,0,0,-1,0,595.32)" d="M312.53 379.51H313.49V385.51H312.53Z" fill-rule="evenodd"/>
<path transform="matrix(1,0,0,-1,0,595.32)" d="M383.45 379.51H384.41V385.51H383.45Z" fill-rule="evenodd"/>
<path transform="matrix(1,0,0,-1,0,595.32)" d="M384.41 384.55H631.51V385.51H384.41Z" fill-rule="evenodd"/>
<path transform="matrix(1,0,0,-1,0,595.32)" d="M631.51 379.51H632.47V385.51H631.51Z" fill-rule="evenodd"/>
<path transform="matrix(1,0,0,-1,0,595.32)" d="M729.1 379.51H730.06V385.51H729.1Z" fill-rule="evenodd"/>
<path transform="matrix(1,0,0,-1,0,595.32)" d="M771.7 379.51H772.66006V385.51H771.7Z" fill-rule="evenodd"/>
<path transform="matrix(1,0,0,-1,0,595.32)" d="M72 280.03H72.96V379.51H72Z" fill-rule="evenodd"/>
<path transform="matrix(1,0,0,-1,0,595.32)" d="M106.94 280.03H107.9V379.51H106.94Z" fill-rule="evenodd"/>
<path transform="matrix(1,0,0,-1,0,595.32)" d="M312.53 280.03H313.49V379.51H312.53Z" fill-rule="evenodd"/>
<path transform="matrix(1,0,0,-1,0,595.32)" d="M383.45 280.03H384.41V379.51H383.45Z" fill-rule="evenodd"/>
<path transform="matrix(1,0,0,-1,0,595.32)" d="M631.51 280.03H632.47V379.51H631.51Z" fill-rule="evenodd"/>
<path transform="matrix(1,0,0,-1,0,595.32)" d="M729.1 280.03H730.06V379.51H729.1Z" fill-rule="evenodd"/>
<path transform="matrix(1,0,0,-1,0,595.32)" d="M771.7 280.03H772.66006V379.51H771.7Z" fill-rule="evenodd"/>
<g clip-path="url(#clip_74)">
<g clip-path="url(#clip_75)">
<text xml:space="preserve" transform="matrix(1 0 -0 1 0 595.32)" font-size="12" font-family="Aptos"><tspan y="-242.33" x="73.2"> </tspan></text>
</g>
</g>
<g clip-path="url(#clip_76)">
<g clip-path="url(#clip_77)">
<text xml:space="preserve" transform="matrix(1 0 -0 1 0 595.32)" font-size="12" font-family="Aptos"><tspan y="-259.61" x="112.46"> </tspan></text>
</g>
</g>
<g clip-path="url(#clip_78)">
<g clip-path="url(#clip_79)">
<text xml:space="preserve" transform="matrix(1 0 -0 1 0 595.32)" font-size="12" font-family="Aptos"><tspan y="-259.61" x="313.85"> </tspan></text>
</g>
</g>
<g clip-path="url(#clip_80)">
<g clip-path="url(#clip_81)">
<text xml:space="preserve" transform="matrix(1 0 -0 1 0 595.32)" font-size="12" font-family="Aptos"><tspan y="-259.61" x="388.85"> </tspan></text>
</g>
</g>
<g clip-path="url(#clip_82)">
<g clip-path="url(#clip_83)">
<text xml:space="preserve" transform="matrix(1 0 -0 1 0 595.32)" font-size="12" font-family="Aptos"><tspan y="-259.61" x="632.71"> </tspan></text>
</g>
</g>
<g clip-path="url(#clip_84)">
<g clip-path="url(#clip_85)">
<text xml:space="preserve" transform="matrix(1 0 -0 1 0 595.32)" font-size="12" font-family="Aptos"><tspan y="-259.61" x="730.3"> </tspan></text>
</g>
</g>
<path transform="matrix(1,0,0,-1,0,595.32)" d="M72 274.03H72.96V280.03H72Z" fill-rule="evenodd"/>
<path transform="matrix(1,0,0,-1,0,595.32)" d="M72.96 279.07H106.944V280.03004H72.96Z" fill-rule="evenodd"/>
<path transform="matrix(1,0,0,-1,0,595.32)" d="M106.94 274.03H107.9V280.03H106.94Z" fill-rule="evenodd"/>
<path transform="matrix(1,0,0,-1,0,595.32)" d="M107.9 279.07H312.52V280.03004H107.9Z" fill-rule="evenodd"/>
<path transform="matrix(1,0,0,-1,0,595.32)" d="M312.53 274.03H313.49V280.03H312.53Z" fill-rule="evenodd"/>
<path transform="matrix(1,0,0,-1,0,595.32)" d="M313.49 279.07H383.44999V280.03004H313.49Z" fill-rule="evenodd"/>
<path transform="matrix(1,0,0,-1,0,595.32)" d="M383.45 274.03H384.41V280.03H383.45Z" fill-rule="evenodd"/>
<path transform="matrix(1,0,0,-1,0,595.32)" d="M384.41 279.07H631.51V280.03004H384.41Z" fill-rule="evenodd"/>
<path transform="matrix(1,0,0,-1,0,595.32)" d="M631.51 274.03H632.47V280.03H631.51Z" fill-rule="evenodd"/>
<path transform="matrix(1,0,0,-1,0,595.32)" d="M632.47 279.07H729.094V280.03004H632.47Z" fill-rule="evenodd"/>
<path transform="matrix(1,0,0,-1,0,595.32)" d="M729.1 274.03H730.06V280.03H729.1Z" fill-rule="evenodd"/>
<path transform="matrix(1,0,0,-1,0,595.32)" d="M730.06 279.07H771.7V280.03004H730.06Z" fill-rule="evenodd"/>
<path transform="matrix(1,0,0,-1,0,595.32)" d="M771.7 274.03H772.66006V280.03H771.7Z" fill-rule="evenodd"/>
<path transform="matrix(1,0,0,-1,0,595.32)" d="M72 240.17H72.96V274.034H72Z" fill-rule="evenodd"/>
<path transform="matrix(1,0,0,-1,0,595.32)" d="M106.94 240.17H107.9V274.034H106.94Z" fill-rule="evenodd"/>
<path transform="matrix(1,0,0,-1,0,595.32)" d="M312.53 240.17H313.49V274.034H312.53Z" fill-rule="evenodd"/>
<path transform="matrix(1,0,0,-1,0,595.32)" d="M383.45 240.17H384.41V274.034H383.45Z" fill-rule="evenodd"/>
<path transform="matrix(1,0,0,-1,0,595.32)" d="M631.51 240.17H632.47V274.034H631.51Z" fill-rule="evenodd"/>
<path transform="matrix(1,0,0,-1,0,595.32)" d="M729.1 240.17H730.06V274.034H729.1Z" fill-rule="evenodd"/>
<path transform="matrix(1,0,0,-1,0,595.32)" d="M771.7 240.17H772.66006V274.034H771.7Z" fill-rule="evenodd"/>
<g clip-path="url(#clip_86)">
<g clip-path="url(#clip_87)">
<text xml:space="preserve" transform="matrix(1 0 -0 1 0 595.32)" font-size="12" font-family="Aptos"><tspan y="-222.29" x="112.46"> </tspan></text>
</g>
</g>
<g clip-path="url(#clip_88)">
<g clip-path="url(#clip_89)">
<text xml:space="preserve" transform="matrix(1 0 -0 1 0 595.32)" font-size="12" font-family="Aptos"><tspan y="-222.29" x="128.78"> </tspan></text>
</g>
</g>
<g clip-path="url(#clip_90)">
<g clip-path="url(#clip_91)">
<text xml:space="preserve" transform="matrix(1 0 -0 1 0 595.32)" font-size="12" font-family="Aptos"><tspan y="-222.29" x="149.3"> </tspan></text>
</g>
</g>
<g clip-path="url(#clip_92)">
<g clip-path="url(#clip_93)">
<text xml:space="preserve" transform="matrix(1 0 -0 1 0 595.32)" font-size="12" font-family="Aptos"><tspan y="-222.29" x="169.82"> </tspan></text>
</g>
</g>
<g clip-path="url(#clip_94)">
<g clip-path="url(#clip_95)">
<text xml:space="preserve" transform="matrix(1 0 -0 1 0 595.32)" font-size="12" font-family="Aptos"><tspan y="-222.29" x="190.46"> </tspan></text>
</g>
</g>
<g clip-path="url(#clip_96)">
<g clip-path="url(#clip_97)">
<text xml:space="preserve" transform="matrix(1 0 -0 1 0 595.32)" font-size="12" font-family="Aptos"><tspan y="-222.29" x="210.98"> </tspan></text>
</g>
</g>
<g clip-path="url(#clip_98)">
<g clip-path="url(#clip_99)">
<text xml:space="preserve" transform="matrix(1 0 -0 1 0 595.32)" font-size="12" font-family="Aptos"><tspan y="-222.29" x="231.5"> </tspan></text>
</g>
</g>
<g clip-path="url(#clip_100)">
<g clip-path="url(#clip_101)">
<text xml:space="preserve" transform="matrix(1 0 -0 1 0 595.32)" font-size="12" font-family="Aptos"><tspan y="-222.29" x="252.02"> </tspan></text>
</g>
</g>
<g clip-path="url(#clip_102)">
<g clip-path="url(#clip_103)">
<text xml:space="preserve" transform="matrix(1 0 -0 1 0 595.32)" font-size="12" font-family="Aptos"><tspan y="-222.29" x="272.66"> </tspan></text>
</g>
</g>
<g clip-path="url(#clip_104)">
<g clip-path="url(#clip_105)">
<text xml:space="preserve" transform="matrix(1 0 -0 1 0 595.32)" font-size="12" font-family="Aptos"><tspan y="-222.29" x="293.21"> </tspan></text>
</g>
</g>
<g clip-path="url(#clip_106)">
<g clip-path="url(#clip_107)">
<text xml:space="preserve" transform="matrix(1 0 -0 1 0 595.32)" font-size="12" font-family="Aptos"><tspan y="-222.29" x="313.85"> </tspan></text>
</g>
</g>
<g clip-path="url(#clip_108)">
<g clip-path="url(#clip_109)">
<text xml:space="preserve" transform="matrix(1 0 -0 1 0 595.32)" font-size="12" font-family="Aptos"><tspan y="-222.29" x="388.85"> </tspan></text>
</g>
</g>
<g clip-path="url(#clip_110)">
<g clip-path="url(#clip_111)">
<text xml:space="preserve" transform="matrix(1 0 -0 1 0 595.32)" font-size="12" font-family="Aptos"><tspan y="-222.29" x="632.71"> </tspan></text>
</g>
</g>
<g clip-path="url(#clip_112)">
<g clip-path="url(#clip_113)">
<text xml:space="preserve" transform="matrix(1 0 -0 1 0 595.32)" font-size="12" font-family="Aptos"><tspan y="-222.29" x="730.3"> </tspan></text>
</g>
</g>
<path transform="matrix(1,0,0,-1,0,595.32)" d="M72 234.17H72.96V240.17H72Z" fill-rule="evenodd"/>
<path transform="matrix(1,0,0,-1,0,595.32)" d="M106.94 234.17H107.9V240.17H106.94Z" fill-rule="evenodd"/>
<path transform="matrix(1,0,0,-1,0,595.32)" d="M107.9 239.21H127.58V240.17H107.9Z" fill-rule="evenodd"/>
<path transform="matrix(1,0,0,-1,0,595.32)" d="M127.58 234.17H128.54001V239.20999H127.58Z" fill-rule="evenodd"/>
<path transform="matrix(1,0,0,-1,0,595.32)" d="M127.58 239.21H128.54001V240.17H127.58Z" fill-rule="evenodd"/>
<path transform="matrix(1,0,0,-1,0,595.32)" d="M128.54 239.21H148.09999V240.17H128.54Z" fill-rule="evenodd"/>
<path transform="matrix(1,0,0,-1,0,595.32)" d="M148.1 234.17H149.06V239.20999H148.1Z" fill-rule="evenodd"/>
<path transform="matrix(1,0,0,-1,0,595.32)" d="M148.1 239.21H149.06V240.17H148.1Z" fill-rule="evenodd"/>
<path transform="matrix(1,0,0,-1,0,595.32)" d="M149.06 239.21H168.62V240.17H149.06Z" fill-rule="evenodd"/>
<path transform="matrix(1,0,0,-1,0,595.32)" d="M168.62 234.17H169.57999V239.20999H168.62Z" fill-rule="evenodd"/>
<path transform="matrix(1,0,0,-1,0,595.32)" d="M168.62 239.21H169.57999V240.17H168.62Z" fill-rule="evenodd"/>
<path transform="matrix(1,0,0,-1,0,595.32)" d="M169.58 239.21H189.14V240.17H169.58Z" fill-rule="evenodd"/>
<path transform="matrix(1,0,0,-1,0,595.32)" d="M189.14 234.17H190.1V239.20999H189.14Z" fill-rule="evenodd"/>
<path transform="matrix(1,0,0,-1,0,595.32)" d="M189.14 239.21H190.1V240.17H189.14Z" fill-rule="evenodd"/>
<path transform="matrix(1,0,0,-1,0,595.32)" d="M190.1 239.21H209.78V240.17H190.1Z" fill-rule="evenodd"/>
<path transform="matrix(1,0,0,-1,0,595.32)" d="M209.78 234.17H210.74V239.20999H209.78Z" fill-rule="evenodd"/>
<path transform="matrix(1,0,0,-1,0,595.32)" d="M209.78 239.21H210.74V240.17H209.78Z" fill-rule="evenodd"/>
<path transform="matrix(1,0,0,-1,0,595.32)" d="M210.74 239.21H230.3V240.17H210.74Z" fill-rule="evenodd"/>
<path transform="matrix(1,0,0,-1,0,595.32)" d="M230.3 234.17H231.26001V239.20999H230.3Z" fill-rule="evenodd"/>
<path transform="matrix(1,0,0,-1,0,595.32)" d="M230.3 239.21H231.26001V240.17H230.3Z" fill-rule="evenodd"/>
<path transform="matrix(1,0,0,-1,0,595.32)" d="M231.26 239.21H250.81999V240.17H231.26Z" fill-rule="evenodd"/>
<path transform="matrix(1,0,0,-1,0,595.32)" d="M250.82 234.17H251.78V239.20999H250.82Z" fill-rule="evenodd"/>
<path transform="matrix(1,0,0,-1,0,595.32)" d="M250.82 239.21H251.78V240.17H250.82Z" fill-rule="evenodd"/>
<path transform="matrix(1,0,0,-1,0,595.32)" d="M251.78 239.21H271.34V240.17H251.78Z" fill-rule="evenodd"/>
<path transform="matrix(1,0,0,-1,0,595.32)" d="M271.34 234.17H272.30003V239.20999H271.34Z" fill-rule="evenodd"/>
<path transform="matrix(1,0,0,-1,0,595.32)" d="M271.34 239.21H272.30003V240.17H271.34Z" fill-rule="evenodd"/>
<path transform="matrix(1,0,0,-1,0,595.32)" d="M272.3 239.21H292.004V240.17H272.3Z" fill-rule="evenodd"/>
<path transform="matrix(1,0,0,-1,0,595.32)" d="M292.01 234.17H292.97004V239.20999H292.01Z" fill-rule="evenodd"/>
<path transform="matrix(1,0,0,-1,0,595.32)" d="M292.01 239.21H292.97004V240.17H292.01Z" fill-rule="evenodd"/>
<path transform="matrix(1,0,0,-1,0,595.32)" d="M292.97 239.21H312.53V240.17H292.97Z" fill-rule="evenodd"/>
<path transform="matrix(1,0,0,-1,0,595.32)" d="M312.53 234.17H313.49V240.17H312.53Z" fill-rule="evenodd"/>
<path transform="matrix(1,0,0,-1,0,595.32)" d="M383.45 234.17H384.41V240.17H383.45Z" fill-rule="evenodd"/>
<path transform="matrix(1,0,0,-1,0,595.32)" d="M631.51 234.17H632.47V240.17H631.51Z" fill-rule="evenodd"/>
<path transform="matrix(1,0,0,-1,0,595.32)" d="M729.1 234.17H730.06V240.17H729.1Z" fill-rule="evenodd"/>
<path transform="matrix(1,0,0,-1,0,595.32)" d="M771.7 234.17H772.66006V240.17H771.7Z" fill-rule="evenodd"/>
<path transform="matrix(1,0,0,-1,0,595.32)" d="M72 203.09H72.96V234.17H72Z" fill-rule="evenodd"/>
<path transform="matrix(1,0,0,-1,0,595.32)" d="M72 202.13H72.96V203.09003H72Z" fill-rule="evenodd"/>
<path transform="matrix(1,0,0,-1,0,595.32)" d="M72 202.13H72.96V203.09003H72Z" fill-rule="evenodd"/>
<path transform="matrix(1,0,0,-1,0,595.32)" d="M72.96 202.13H106.944V203.09003H72.96Z" fill-rule="evenodd"/>
<path transform="matrix(1,0,0,-1,0,595.32)" d="M106.94 203.09H107.9V234.17H106.94Z" fill-rule="evenodd"/>
<path transform="matrix(1,0,0,-1,0,595.32)" d="M106.94 202.13H107.9V203.09003H106.94Z" fill-rule="evenodd"/>
<path transform="matrix(1,0,0,-1,0,595.32)" d="M107.9 202.13H127.58V203.09003H107.9Z" fill-rule="evenodd"/>
<path transform="matrix(1,0,0,-1,0,595.32)" d="M127.58 203.09H128.54001V234.17H127.58Z" fill-rule="evenodd"/>
<path transform="matrix(1,0,0,-1,0,595.32)" d="M127.58 202.13H128.54001V203.09003H127.58Z" fill-rule="evenodd"/>
<path transform="matrix(1,0,0,-1,0,595.32)" d="M128.54 202.13H148.09999V203.09003H128.54Z" fill-rule="evenodd"/>
<path transform="matrix(1,0,0,-1,0,595.32)" d="M148.1 203.09H149.06V234.17H148.1Z" fill-rule="evenodd"/>
<path transform="matrix(1,0,0,-1,0,595.32)" d="M148.1 202.13H149.06V203.09003H148.1Z" fill-rule="evenodd"/>
<path transform="matrix(1,0,0,-1,0,595.32)" d="M149.06 202.13H168.62V203.09003H149.06Z" fill-rule="evenodd"/>
<path transform="matrix(1,0,0,-1,0,595.32)" d="M168.62 203.09H169.57999V234.17H168.62Z" fill-rule="evenodd"/>
<path transform="matrix(1,0,0,-1,0,595.32)" d="M168.62 202.13H169.57999V203.09003H168.62Z" fill-rule="evenodd"/>
<path transform="matrix(1,0,0,-1,0,595.32)" d="M169.58 202.13H189.14V203.09003H169.58Z" fill-rule="evenodd"/>
<path transform="matrix(1,0,0,-1,0,595.32)" d="M189.14 203.09H190.1V234.17H189.14Z" fill-rule="evenodd"/>
<path transform="matrix(1,0,0,-1,0,595.32)" d="M189.14 202.13H190.1V203.09003H189.14Z" fill-rule="evenodd"/>
<path transform="matrix(1,0,0,-1,0,595.32)" d="M190.1 202.13H209.78V203.09003H190.1Z" fill-rule="evenodd"/>
<path transform="matrix(1,0,0,-1,0,595.32)" d="M209.78 203.09H210.74V234.17H209.78Z" fill-rule="evenodd"/>
<path transform="matrix(1,0,0,-1,0,595.32)" d="M209.78 202.13H210.74V203.09003H209.78Z" fill-rule="evenodd"/>
<path transform="matrix(1,0,0,-1,0,595.32)" d="M210.74 202.13H230.3V203.09003H210.74Z" fill-rule="evenodd"/>
<path transform="matrix(1,0,0,-1,0,595.32)" d="M230.3 203.09H231.26001V234.17H230.3Z" fill-rule="evenodd"/>
<path transform="matrix(1,0,0,-1,0,595.32)" d="M230.3 202.13H231.26001V203.09003H230.3Z" fill-rule="evenodd"/>
<path transform="matrix(1,0,0,-1,0,595.32)" d="M231.26 202.13H250.81999V203.09003H231.26Z" fill-rule="evenodd"/>
<path transform="matrix(1,0,0,-1,0,595.32)" d="M250.82 203.09H251.78V234.17H250.82Z" fill-rule="evenodd"/>
<path transform="matrix(1,0,0,-1,0,595.32)" d="M250.82 202.13H251.78V203.09003H250.82Z" fill-rule="evenodd"/>
<path transform="matrix(1,0,0,-1,0,595.32)" d="M251.78 202.13H271.34V203.09003H251.78Z" fill-rule="evenodd"/>
<path transform="matrix(1,0,0,-1,0,595.32)" d="M271.34 203.09H272.30003V234.17H271.34Z" fill-rule="evenodd"/>
<path transform="matrix(1,0,0,-1,0,595.32)" d="M271.34 202.13H272.30003V203.09003H271.34Z" fill-rule="evenodd"/>
<path transform="matrix(1,0,0,-1,0,595.32)" d="M272.3 202.13H292.004V203.09003H272.3Z" fill-rule="evenodd"/>
<path transform="matrix(1,0,0,-1,0,595.32)" d="M292.01 203.09H292.97004V234.17H292.01Z" fill-rule="evenodd"/>
<path transform="matrix(1,0,0,-1,0,595.32)" d="M292.01 202.13H292.97004V203.09003H292.01Z" fill-rule="evenodd"/>
<path transform="matrix(1,0,0,-1,0,595.32)" d="M292.97 202.13H312.53V203.09003H292.97Z" fill-rule="evenodd"/>
<path transform="matrix(1,0,0,-1,0,595.32)" d="M312.53 203.09H313.49V234.17H312.53Z" fill-rule="evenodd"/>
<path transform="matrix(1,0,0,-1,0,595.32)" d="M312.53 202.13H313.49V203.09003H312.53Z" fill-rule="evenodd"/>
<path transform="matrix(1,0,0,-1,0,595.32)" d="M313.49 202.13H383.44999V203.09003H313.49Z" fill-rule="evenodd"/>
<path transform="matrix(1,0,0,-1,0,595.32)" d="M383.45 203.09H384.41V234.17H383.45Z" fill-rule="evenodd"/>
<path transform="matrix(1,0,0,-1,0,595.32)" d="M383.45 202.13H384.41V203.09003H383.45Z" fill-rule="evenodd"/>
<path transform="matrix(1,0,0,-1,0,595.32)" d="M384.41 202.13H631.51V203.09003H384.41Z" fill-rule="evenodd"/>
<path transform="matrix(1,0,0,-1,0,595.32)" d="M631.51 203.09H632.47V234.17H631.51Z" fill-rule="evenodd"/>
<path transform="matrix(1,0,0,-1,0,595.32)" d="M631.51 202.13H632.47V203.09003H631.51Z" fill-rule="evenodd"/>
<path transform="matrix(1,0,0,-1,0,595.32)" d="M632.47 202.13H729.094V203.09003H632.47Z" fill-rule="evenodd"/>
<path transform="matrix(1,0,0,-1,0,595.32)" d="M729.1 203.09H730.06V234.17H729.1Z" fill-rule="evenodd"/>
<path transform="matrix(1,0,0,-1,0,595.32)" d="M729.1 202.13H730.06V203.09003H729.1Z" fill-rule="evenodd"/>
<path transform="matrix(1,0,0,-1,0,595.32)" d="M730.06 202.13H771.7V203.09003H730.06Z" fill-rule="evenodd"/>
<path transform="matrix(1,0,0,-1,0,595.32)" d="M771.7 203.09H772.66006V234.17H771.7Z" fill-rule="evenodd"/>
<path transform="matrix(1,0,0,-1,0,595.32)" d="M771.7 202.13H772.66006V203.09003H771.7Z" fill-rule="evenodd"/>
<path transform="matrix(1,0,0,-1,0,595.32)" d="M771.7 202.13H772.66006V203.09003H771.7Z" fill-rule="evenodd"/>
<g clip-path="url(#clip_114)">
<text xml:space="preserve" transform="matrix(1 0 -0 1 0 595.32)" font-size="12" font-family="Aptos"><tspan y="-190.85" x="72"> </tspan></text>
</g>
<g clip-path="url(#clip_115)">
<text xml:space="preserve" transform="matrix(1 0 -0 1 0 595.32)" font-size="18" font-family="PMingLiU"><tspan y="-160.01" x="198.62 216.62 234.62 252.62 270.62 288.62 306.62">&#x63d0;&#x8b70;&#x4eba;&#x4e4b;&#x9818;&#x929c;&#x4eba;</tspan></text>
</g>
<g clip-path="url(#clip_116)">
<text xml:space="preserve" transform="matrix(1 0 -0 1 0 595.32)" font-size="18" font-family="Aptos"><tspan y="-160.01" x="324.65"> </tspan></text>
</g>
<g clip-path="url(#clip_117)">
<text xml:space="preserve" transform="matrix(1 0 -0 1 0 595.32)" font-size="18" font-family="Aptos"><tspan y="-160.01" x="333.65"> </tspan></text>
</g>
<g clip-path="url(#clip_118)">
<text xml:space="preserve" transform="matrix(1 0 -0 1 0 595.32)" font-size="18" font-family="Aptos"><tspan y="-160.01" x="337.37"> </tspan></text>
</g>
<g clip-path="url(#clip_119)">
<text xml:space="preserve" transform="matrix(1 0 -0 1 0 595.32)" font-size="18" font-family="PMingLiU"><tspan y="-160.01" x="346.37 364.37 382.37 400.37 418.37 436.37 454.37 472.37 490.37">         </tspan></text>
</g>
<g clip-path="url(#clip_120)">
<text xml:space="preserve" transform="matrix(1 0 -0 1 0 595.32)" font-size="18" font-family="Aptos"><tspan y="-160.01" x="508.39"> </tspan></text>
</g>
<g clip-path="url(#clip_121)">
<text xml:space="preserve" transform="matrix(1 0 -0 1 0 595.32)" font-size="18" font-family="PMingLiU"><tspan y="-160.01" x="517.39 535.39 553.39 571.39 589.39 607.39 625.39">&#xff08;&#x7c3d;&#x540d;&#x6216;&#x84cb;&#x7ae0;&#xff09;</tspan></text>
</g>
<g clip-path="url(#clip_122)">
<text xml:space="preserve" transform="matrix(1 0 -0 1 0 595.32)" font-size="18" font-family="Aptos"><tspan y="-160.01" x="643.39"> </tspan></text>
</g>
<g clip-path="url(#clip_123)">
<text xml:space="preserve" transform="matrix(1 0 -0 1 0 595.32)" font-size="18" font-family="PMingLiU"><tspan y="-124.82" x="105.98">&#x4e2d;</tspan></text>
</g>
<g clip-path="url(#clip_124)">
<text xml:space="preserve" transform="matrix(1 0 -0 1 0 595.32)" font-size="18" font-family="PMingLiU"><tspan y="-124.82" x="123.98 141.98001 159.98001 177.98001 195.98001">     </tspan></text>
</g>
<g clip-path="url(#clip_125)">
<text xml:space="preserve" transform="matrix(1 0 -0 1 0 595.32)" font-size="18" font-family="PMingLiU"><tspan y="-124.82" x="213.98">&#x83ef;</tspan></text>
</g>
<g clip-path="url(#clip_126)">
<text xml:space="preserve" transform="matrix(1 0 -0 1 0 595.32)" font-size="18" font-family="PMingLiU"><tspan y="-124.82" x="231.98 249.98 267.97999 285.97999 303.97999">     </tspan></text>
</g>
<g clip-path="url(#clip_127)">
<text xml:space="preserve" transform="matrix(1 0 -0 1 0 595.32)" font-size="18" font-family="PMingLiU"><tspan y="-124.82" x="322.01">&#x6c11;</tspan></text>
</g>
<g clip-path="url(#clip_128)">
<text xml:space="preserve" transform="matrix(1 0 -0 1 0 595.32)" font-size="18" font-family="PMingLiU"><tspan y="-124.82" x="340.01 358.01 376.01 394.01 412.01">     </tspan></text>
</g>
<g clip-path="url(#clip_129)">
<text xml:space="preserve" transform="matrix(1 0 -0 1 0 595.32)" font-size="18" font-family="PMingLiU"><tspan y="-124.82" x="430.01">&#x570b;</tspan></text>
</g>
<g clip-path="url(#clip_130)">
<text xml:space="preserve" transform="matrix(1 0 -0 1 0 595.32)" font-size="18" font-family="PMingLiU"><tspan y="-124.82" x="448.01 466.01 484.01 502.01">    </tspan></text>
</g>
<g clip-path="url(#clip_131)">
<text xml:space="preserve" transform="matrix(1 0 -0 1 0 595.32)" font-size="18" font-family="PMingLiU"><tspan y="-124.82" x="520.03">&#x5e74;</tspan></text>
</g>
<g clip-path="url(#clip_132)">
<text xml:space="preserve" transform="matrix(1 0 -0 1 0 595.32)" font-size="18" font-family="PMingLiU"><tspan y="-124.82" x="538.03 556.03 574.03 592.03">    </tspan></text>
</g>
<g clip-path="url(#clip_133)">
<text xml:space="preserve" transform="matrix(1 0 -0 1 0 595.32)" font-size="18" font-family="PMingLiU"><tspan y="-124.82" x="610.03">&#x6708;</tspan></text>
</g>
<g clip-path="url(#clip_134)">
<text xml:space="preserve" transform="matrix(1 0 -0 1 0 595.32)" font-size="18" font-family="PMingLiU"><tspan y="-124.82" x="628.03 646.03 664.03 682.03">    </tspan></text>
</g>
<g clip-path="url(#clip_135)">
<text xml:space="preserve" transform="matrix(1 0 -0 1 0 595.32)" font-size="18" font-family="PMingLiU"><tspan y="-124.82" x="700.06 718.06">&#x65e5;&#x9020;</tspan></text>
</g>
<g clip-path="url(#clip_136)">
<text xml:space="preserve" transform="matrix(1 0 -0 1 0 595.32)" font-size="18" font-family="Aptos"><tspan y="-124.82" x="736.06"> </tspan></text>
</g>
</g>
</svg>
